<?xml version="1.0" encoding="iso-8859-1"?>
<!-- Generator: Adobe Illustrator 19.0.0, SVG Export Plug-In . SVG Version: 6.00 Build 0)  -->
<svg version="1.1" id="Layer_1" xmlns="http://www.w3.org/2000/svg" xmlns:xlink="http://www.w3.org/1999/xlink" x="0px" y="0px"
	 viewBox="0 0 511.99 511.99" style="enable-background:new 0 0 511.99 511.99;" xml:space="preserve">
<path style="fill:#656D78;" d="M383.93,198.281H106.732c-5.875,0-10.656,4.773-10.656,10.664v148.326
	c0,5.891,4.781,10.656,10.656,10.656c25,0,106.311,22.765,135.545,31.53c1,0.312,2.031,0.469,3.062,0.469s2.062-0.156,3.062-0.469
	c29.266-8.75,110.655-31.53,135.528-31.53c5.891,0,10.656-4.766,10.656-10.656V208.945
	C394.586,203.054,389.82,198.281,383.93,198.281z"/>
<path style="opacity:0.1;fill:#FFFFFF;enable-background:new    ;" d="M106.732,367.927c2.875,0,6.484,0.312,10.672,0.844v-170.49
	h-10.672c-5.875,0-10.656,4.773-10.656,10.664v148.326C96.076,363.161,100.857,367.927,106.732,367.927z"/>
<path style="fill:#434A54;" d="M482.804,176.407l-234.668-63.968c-1.827-0.5-3.765-0.5-5.608,0L7.859,176.407
	C3.218,177.673,0,181.884,0,186.696c0,4.804,3.219,9.015,7.859,10.281l234.668,63.968c0.922,0.25,1.859,0.375,2.812,0.375
	c0.938,0,1.874-0.125,2.796-0.375l234.668-63.968c4.641-1.266,7.859-5.477,7.859-10.281
	C490.663,181.883,487.444,177.672,482.804,176.407z"/>
<path style="fill:#F6BB42;" d="M480.007,250.655c-5.891,0-10.655-4.773-10.655-10.656v-53.303c0-5.891,4.765-10.664,10.655-10.664
	s10.656,4.773,10.656,10.664v53.303C490.663,245.882,485.897,250.655,480.007,250.655z"/>
<path style="fill:#FFCE54;" d="M510.194,266.069l-21.312-31.984c-1.984-2.969-5.312-4.75-8.875-4.75s-6.89,1.781-8.874,4.75
	l-21.312,31.984c-1.172,1.75-1.797,3.805-1.797,5.914v53.304c0,5.891,4.766,10.672,10.656,10.672h42.655
	c5.891,0,10.655-4.781,10.655-10.672v-53.304C511.99,269.874,511.366,267.819,510.194,266.069z"/>
<path style="fill:#F6BB42;" d="M480.007,197.351H234.793c-5.875,0-10.656-4.773-10.656-10.656c0-5.891,4.781-10.664,10.656-10.664
	h245.214c5.891,0,10.656,4.773,10.656,10.664C490.663,192.578,485.897,197.351,480.007,197.351z"/>
<g>
</g>
<g>
</g>
<g>
</g>
<g>
</g>
<g>
</g>
<g>
</g>
<g>
</g>
<g>
</g>
<g>
</g>
<g>
</g>
<g>
</g>
<g>
</g>
<g>
</g>
<g>
</g>
<g>
</g>
</svg>
