<svg width="25" height="25" viewBox="0 0 25 25" fill="none" xmlns="http://www.w3.org/2000/svg">
<path d="M12.6213 2.83594C11.3363 2.83594 10.0638 3.08904 8.8766 3.5808C7.68938 4.07256 6.61066 4.79335 5.702 5.702C3.86689 7.53711 2.83594 10.0261 2.83594 12.6213C2.83594 16.9464 5.64433 20.6159 9.52912 21.9174C10.0184 21.9957 10.175 21.6923 10.175 21.4281V19.7744C7.46441 20.3615 6.88707 18.4631 6.88707 18.4631C6.43695 17.328 5.8009 17.0247 5.8009 17.0247C4.91043 16.418 5.8694 16.4376 5.8694 16.4376C6.84793 16.5061 7.36656 17.4455 7.36656 17.4455C8.21788 18.9328 9.65633 18.4925 10.2141 18.2577C10.3022 17.6216 10.5566 17.1911 10.8306 16.9464C8.65822 16.7018 6.37824 15.8602 6.37824 12.132C6.37824 11.0458 6.75008 10.175 7.38613 9.48019C7.28827 9.23556 6.94579 8.21788 7.48398 6.89686C7.48398 6.89686 8.30595 6.63265 10.175 7.89497C10.948 7.67969 11.7895 7.57205 12.6213 7.57205C13.453 7.57205 14.2946 7.67969 15.0676 7.89497C16.9366 6.63265 17.7586 6.89686 17.7586 6.89686C18.2968 8.21788 17.9543 9.23556 17.8565 9.48019C18.4925 10.175 18.8643 11.0458 18.8643 12.132C18.8643 15.87 16.5746 16.692 14.3924 16.9366C14.7447 17.24 15.0676 17.8369 15.0676 18.7469V21.4281C15.0676 21.6923 15.2242 22.0054 15.7232 21.9174C19.608 20.6061 22.4066 16.9464 22.4066 12.6213C22.4066 11.3363 22.1535 10.0638 21.6618 8.8766C21.17 7.68938 20.4492 6.61066 19.5406 5.702C18.6319 4.79335 17.5532 4.07256 16.366 3.5808C15.1788 3.08904 13.9063 2.83594 12.6213 2.83594Z" fill="white"/>
</svg>
