<svg width="64px" height="64px" viewBox="0 0 64 64" xmlns="http://www.w3.org/2000/svg">
  <g fill="none" fill-rule="evenodd">
    <rect width="21" height="11" x="22" y="9" stroke="#9F5757" stroke-linecap="round" stroke-width="2" rx="3"/>
    <path fill="#9F5757" d="M7,16 L58,16 L58,51.0023401 C58,52.657902 56.6620883,54 55.0001194,54 L9.9998806,54 C8.34309229,54 7,52.6475599 7,51.0023401 L7,16 Z"/>
    <path fill="#BD7575" d="M3,16 L62,16 L62,27.9734067 C62,30.1824351 60.2020322,31.9732065 57.9910754,31.9732065 L7.00892456,31.9732065 C4.79485666,31.9732065 3,30.1873717 3,27.9734067 L3,16 Z"/>
    <path fill="#FFF" d="M18 29L24 29 24 32C24 33.6568542 22.6534829 35 21 35L21 35C19.3431458 35 18 33.6534829 18 32L18 29zM41 29L47 29 47 32C47 33.6568542 45.6534829 35 44 35L44 35C42.3431458 35 41 33.6534829 41 32L41 29z"/>
  </g>
</svg>
