<svg width="21" height="21" viewBox="0 0 21 21" fill="none" xmlns="http://www.w3.org/2000/svg">
<path d="M10.6213 0.835938C11.9063 0.835938 13.1788 1.08904 14.366 1.5808C15.5532 2.07256 16.6319 2.79335 17.5406 3.702C18.4492 4.61066 19.17 5.68938 19.6618 6.8766C20.1535 8.06381 20.4066 9.33626 20.4066 10.6213C20.4066 13.2165 19.3757 15.7055 17.5406 17.5406C15.7055 19.3757 13.2165 20.4066 10.6213 20.4066C6.12003 20.4066 2.35267 17.3928 1.18821 13.2927L4.936 14.8388C5.06493 15.4653 5.40585 16.0283 5.90135 16.4329C6.39684 16.8375 7.01663 17.059 7.65633 17.0601C9.18284 17.0601 10.4256 15.8173 10.4256 14.2908V14.1636L13.7526 11.7857H13.8309C15.8662 11.7857 17.52 10.132 17.52 8.09667C17.52 6.06132 15.8662 4.40759 13.8309 4.40759C11.7955 4.40759 10.132 6.06132 10.132 8.09667V8.1456L7.81289 11.5313L7.65633 11.5215C7.07899 11.5215 6.5408 11.6977 6.10046 12.001L0.835938 9.83846C1.25671 4.79901 5.46441 0.835938 10.6213 0.835938ZM6.98114 15.6803C7.76397 16.0032 8.66422 15.6412 8.98714 14.8583C9.31005 14.0755 8.93821 13.1851 8.17495 12.8621L6.92243 12.3435C7.40191 12.1674 7.9401 12.1576 8.44894 12.3729C8.96757 12.5784 9.36877 12.9796 9.57426 13.4982C9.78954 14.007 9.78954 14.5746 9.57426 15.0834C9.15349 16.1402 7.91075 16.6491 6.85393 16.2087C6.36466 16.0032 5.99282 15.6314 5.78733 15.1911L6.98114 15.6803ZM16.2968 8.09667C16.2968 9.45683 15.1911 10.5626 13.8309 10.5626C13.1786 10.56 12.5539 10.299 12.0935 9.83688C11.6332 9.37471 11.3748 8.74898 11.3748 8.09667C11.3735 7.77376 11.4361 7.4538 11.5591 7.15522C11.6821 6.85665 11.8629 6.58537 12.0913 6.35704C12.3196 6.12871 12.5909 5.94784 12.8894 5.82487C13.188 5.7019 13.508 5.63925 13.8309 5.64055C14.4832 5.64054 15.1089 5.899 15.5711 6.35933C16.0333 6.81966 16.2942 7.44437 16.2968 8.09667ZM11.9912 8.09667C11.9912 9.11435 12.8132 9.9461 13.8407 9.9461C14.8583 9.9461 15.6803 9.11435 15.6803 8.09667C15.6803 7.07899 14.8583 6.24724 13.8407 6.24724C12.8132 6.24724 11.9912 7.07899 11.9912 8.09667Z" fill="white"/>
</svg>
