<svg id="Calque_1" data-name="Calque 1" xmlns="http://www.w3.org/2000/svg" viewBox="0 0 849.45 360.48"><defs><style>.cls-1,.cls-4{fill:#333;}.cls-2{fill:#f59a23;}.cls-3{fill:none;}.cls-3,.cls-4{stroke:#f59a23;stroke-miterlimit:10;stroke-width:3px;}</style></defs><path class="cls-1" d="M829.5,289.65l14.3,20.5-88.8.3-88.8.2-.4,10.8c-.2,9-.7,11.6-2.9,16.2-3.5,7.4-10.5,14.3-17.7,17.2l-5.7,2.3-213,.3c-145.1.2-215.2-.1-219.8-.8-11.9-1.8-20.5-7.9-25.4-17.8-2.4-5-2.8-7.1-3.2-16.9l-.3-11.3-88.8-.2-88.9-.3,14.6-20.8c9.4-13.5,14.3-21.5,14-22.6s-6.8-10.9-14.6-21.9S0,224.55,0,224.25s40-.6,89-.6h89l.2-99.8.3-99.7,2.8-5.7A32.63,32.63,0,0,1,205.2.75c3-.5,98.6-.8,219.8-.7l214.5.1,5.7,2.3c7.2,2.9,14.2,9.8,17.7,17.2l2.6,5.5.3,99.2.2,99.3h89c49,0,89,.2,89,.5s-6.5,9.9-14.5,21.2-14.5,21.3-14.5,22.2S821.6,278.35,829.5,289.65Zm-29.7-18a17,17,0,0,0-12.5-17.9c-6.1-1.7-10.5-1-16.6,2.8-12.2,7.5-10.6,30.8,2.6,37.8,4.6,2.4,15.2,2.3,20.2-.3,5.2-2.7,6.5-4.8,4.2-7.1-1.5-1.5-2.1-1.6-5-.4a29.29,29.29,0,0,1-8.3,1.8c-4.3.4-5.5.1-8.1-2.1a13.75,13.75,0,0,1-4.1-6.6l-1-3.9,14.2-.3,14.1-.3Zm-45.8,24v-61H744v61h10Zm-29.5-1.2c6.9-3.7,10.5-10.4,10.5-19.8,0-10.8-4.7-17.9-13.4-20.5-9.3-2.8-16.4-.9-22.4,5.9-8.7,10-5.5,28.2,6.2,34.3C709.5,296.55,720.5,296.55,724.5,294.45Zm-38.9-33.3c1.8-2.5,1.4-3.6-2.3-5.7-6.1-3.6-16.3-2.9-21,1.4a14,14,0,0,0-3.8,11.8c.8,3.6,5.1,7.4,10.2,9,7.7,2.5,10.3,4.1,10.3,6.5,0,5.4-7.3,7.2-14.5,3.8-3.6-1.7-3.7-1.7-5.5.7-2.4,3.2-1.3,4.6,5.7,6.6,12.4,3.6,23.3-2.5,23.3-13.2,0-3.9-5.6-8.9-12-10.8-5.6-1.7-9-4-9-6.2,0-4,7-5.6,13.8-3.2C683.8,263,684.3,263,685.6,261.15Zm-35.4,34.5-.4-16.3c-.3-17.5-1.2-21-6.3-24.3-2.6-1.7-8.8-2.6-12-1.7a19.9,19.9,0,0,0-5.3,3,13.12,13.12,0,0,1-3.5,2.2c-2-3.9-2.8-4.4-6.1-4.7l-3.6-.3v42.1h10v-31l3.3-2a15.3,15.3,0,0,1,6.9-2c6.1,0,6.8,1.9,6.8,19.7v15.3h10.2Zm-51.6-5.4c9.7-9.6,7.6-28.2-3.8-34.6-7.3-4.1-18.8-3.1-24.5,2.2-8.2,7.5-8.5,24.8-.5,33.1,2.5,2.6,10.4,5.7,14.6,5.7A20.67,20.67,0,0,0,598.6,290.25ZM565,172.65v-12H291v12H565Zm-4.9,116-2.3-3c-2.6-3.6-3.1-3.6-7.1-.8-2.7,1.9-4.5,2.3-10.8,2.3-6.7,0-8-.3-11.1-2.7-5.4-4.1-7.8-9.9-7.8-18.9.1-10.9,3.9-18,11.3-20.8,4.9-1.9,12-1.3,17,1.3l4.6,2.5,2.6-3.1c3.1-3.7,2.5-4.7-4.7-7.8-19.6-8.4-39.2,3.3-41.4,24.7-.8,7.5,1.5,16.9,5.6,22.8,8.1,11.7,26.4,14.7,39.4,6.5Zm-49.1-81v-11H345v11H511Zm-37.3,86.5c6.8-4,10.1-13,9-24.6-.9-10.7-6.2-16.3-15.1-16.3-4.3,0-6.1.5-8.9,2.7a22.38,22.38,0,0,1-4.1,2.7c-.3,0-.6-5.4-.6-12v-12h-9v61h3.4c2.3,0,3.8-.7,4.8-2.2l1.4-2.1,3.3,2.4C461.9,296.75,469.1,297,473.7,294.15Zm-37.2-4.4-2.2-2.3c-2.1-2.1-2.5-2.1-5.5-.9a29.4,29.4,0,0,1-8.1,1.8c-5.8.6-9.2-1.3-11.3-6.2-2.7-6.6-2.9-6.5,12.6-6.5h14v-5c0-6.3-2.8-12.1-7.2-14.8-7-4.3-17.7-3.4-23.5,2-9.1,8.4-8.4,27,1.2,34.4,5.1,3.8,12.8,5.1,19.5,3.1a33.63,33.63,0,0,0,8-3.7ZM418.2,62.25c.1-9.4-4.2-16.2-12.7-20.2-14.2-6.7-30,2.5-31.3,18.2-1.1,13.5,8.6,23.9,22.4,23.8C409.3,84,418.1,75.05,418.2,62.25Zm-27.7,202.3c4.7-15.1,8.5-27.9,8.5-28.2,0-.9-8.2-.9-9.7.1-.6.4-3.6,9.4-6.6,20s-5.9,19.8-6.5,20.4-3-5.1-7.7-19.3c-3.6-11.2-7.1-20.7-7.8-21.1-1.9-1.2-6.3-.9-7.5.4-.5.7-3.8,10.3-7.3,21.3s-6.4,20.2-6.6,20.4c-.7,1-1.7-1.8-7-20.5-3.1-11-6.1-20.5-6.6-21.2-1-1.3-10.7-1.7-10.7-.4,0,.7,12.9,42.8,16.6,54.4l1.6,4.8h9.3l6.6-20.8c4.1-12.9,7.1-20.7,7.9-20.7s3.8,7.8,7.9,20.7l6.6,20.8h4.7c3.6,0,4.8-.4,5.2-1.8C381.7,293,385.7,279.75,390.5,264.55Zm-100.7,7.1a17,17,0,0,0-12.5-17.9c-6.1-1.7-10.5-1-16.6,2.8-12.2,7.5-10.6,30.8,2.6,37.8,4.6,2.4,15.2,2.3,20.2-.3,5.2-2.7,6.5-4.8,4.2-7.1-1.5-1.5-2.1-1.6-5-.4a29.29,29.29,0,0,1-8.3,1.8c-4.6.4-5.5.1-8.3-2.4a12.49,12.49,0,0,1-4-6.5l-.9-3.7,14.2-.3,14.1-.3ZM262.2,82.25c16.8-8.1,17.1-31.8.6-40-6.6-3.3-12.6-3.4-19.4-.2-21.3,9.9-14,42.1,9.6,42A23.19,23.19,0,0,0,262.2,82.25ZM248,289.75a6.71,6.71,0,0,0-2-2.6c-1.9-1.8-2.2-1.8-5.6-.2-5.3,2.6-9.8,2.2-13.6-1.2-3.2-2.9-3.3-3.1-3.3-11.1s.1-8.2,3.3-11.1c3.8-3.4,10.2-4,14.1-1.3,2.2,1.5,2.4,1.5,4.3-.4,2.6-2.5,1.9-4.6-2.2-6.7-6.6-3.4-15.5-2.7-22.4,1.8s-9.3,19.7-4.7,29c3.4,7,8.7,10.2,16.5,10.2,4.9,0,7.1-.6,10.9-2.8C245.9,291.85,248,290.25,248,289.75Zm-38-27.1v-4.4c0-3.1-.5-4.6-1.6-5-3.4-1.3-7.3.2-10.2,3.8-2.6,3.3-4,3.3-4.4-.2-.3-2.3-.8-2.7-4-3l-3.8-.3v42.1h9v-12.5c0-17.1,1.8-20.5,10.9-20.5Zm-35,33v-42H165v31.6l-2.9,1.7c-4,2.3-9.6,2.2-12.1-.3-1.8-1.8-2-3.3-2-17.5v-15.5h-9v16.1c0,17.7.9,21.2,5.8,24.5,4.2,2.8,12.1,2.4,16.9-.8l4-2.7,1.2,2.5c.8,1.9,1.8,2.4,4.6,2.4Zm-45-21c0-10.8-4.7-17.9-13.4-20.5-6.1-1.8-8.9-1.8-14.1,0-13.9,4.9-17.9,25.3-7.1,36.1,6.1,6.1,12.3,7.6,21.2,4.9C125.3,292.55,130,285.45,130,274.65Zm-73.1,21.1c17.3,3.7,30.9-10.9,24.2-25.7-2-4.3-5.8-6.7-17.2-10.8-8.8-3.1-11.3-8.3-6.4-13.1,3.1-3.2,9.9-3.4,15.6-.5,4.5,2.3,5.3,2.1,7.4-2,1.4-2.8,1.4-2.9-1.8-4.9a29.42,29.42,0,0,0-7.7-3c-10-2.3-17.6.3-22.7,7.9-2.8,4-3.1,11.6-.7,16.6,1.9,4,5.6,6.4,14.5,9.3,8.3,2.7,10.9,5,10.9,9.7,0,8.3-9.3,11-19.8,5.7l-5.4-2.7-1.9,2.4a10.62,10.62,0,0,0-1.9,3.7C44,290.45,51.1,294.45,56.9,295.75Z" transform="translate(2.78 1.47)"/><path class="cls-2" d="M787.3,253.75a17,17,0,0,1,12.5,17.9l-.3,3.5-14.1.3-14.2.3,1,3.9a13.75,13.75,0,0,0,4.1,6.6c2.6,2.2,3.8,2.5,8.1,2.1a29.29,29.29,0,0,0,8.3-1.8c2.9-1.2,3.5-1.1,5,.4,2.3,2.3,1,4.4-4.2,7.1-5,2.6-15.6,2.7-20.2.3-13.2-7-14.8-30.3-2.6-37.8C776.8,252.75,781.2,252.05,787.3,253.75Z" transform="translate(2.78 1.47)"/><polygon class="cls-2" points="756.78 266.62 756.78 297.12 751.78 297.12 746.78 297.12 746.78 266.62 746.78 236.12 751.78 236.12 756.78 236.12 756.78 266.62"/><path class="cls-2" d="M735,274.65c0,9.4-3.6,16.1-10.5,19.8-4,2.1-15,2.1-19.1-.1-11.7-6.1-14.9-24.3-6.2-34.3,6-6.8,13.1-8.7,22.4-5.9C730.3,256.75,735,263.85,735,274.65Z" transform="translate(2.78 1.47)"/><path class="cls-2" d="M683.3,255.45c3.7,2.1,4.1,3.2,2.3,5.7-1.3,1.8-1.8,1.8-4.8.7-6.8-2.4-13.8-.8-13.8,3.2,0,2.2,3.4,4.5,9,6.2,6.4,1.9,12,6.9,12,10.8,0,10.7-10.9,16.8-23.3,13.2-7-2-8.1-3.4-5.7-6.6,1.8-2.4,1.9-2.4,5.5-.7,7.2,3.4,14.5,1.6,14.5-3.8,0-2.4-2.6-4-10.3-6.5-5.1-1.6-9.4-5.4-10.2-9a14,14,0,0,1,3.8-11.8C667,252.55,677.2,251.85,683.3,255.45Z" transform="translate(2.78 1.47)"/><path class="cls-2" d="M649.8,279.35l.4,16.3H640v-15.3c0-17.8-.7-19.7-6.8-19.7a15.3,15.3,0,0,0-6.9,2l-3.3,2v31H613v-42.1l3.6.3c3.3.3,4.1.8,6.1,4.7a13.12,13.12,0,0,0,3.5-2.2,19.9,19.9,0,0,1,5.3-3c3.2-.9,9.4,0,12,1.7C648.6,258.35,649.5,261.85,649.8,279.35Z" transform="translate(2.78 1.47)"/><path class="cls-2" d="M594.8,255.65c11.4,6.4,13.5,25,3.8,34.6a20.67,20.67,0,0,1-14.2,6.4c-4.2,0-12.1-3.1-14.6-5.7-8-8.3-7.7-25.6.5-33.1C576,252.55,587.5,251.55,594.8,255.65Z" transform="translate(2.78 1.47)"/><polygon class="cls-2" points="567.78 168.12 567.78 174.12 430.78 174.12 293.78 174.12 293.78 168.12 293.78 162.12 430.78 162.12 567.78 162.12 567.78 168.12"/><path class="cls-2" d="M557.8,285.65l2.3,3-4.7,3c-13,8.2-31.3,5.2-39.4-6.5-4.1-5.9-6.4-15.3-5.6-22.8,2.2-21.4,21.8-33.1,41.4-24.7,7.2,3.1,7.8,4.1,4.7,7.8l-2.6,3.1-4.6-2.5c-5-2.6-12.1-3.2-17-1.3-7.4,2.8-11.2,9.9-11.3,20.8,0,9,2.4,14.8,7.8,18.9,3.1,2.4,4.4,2.7,11.1,2.7,6.3,0,8.1-.4,10.8-2.3C554.7,282.05,555.2,282.05,557.8,285.65Z" transform="translate(2.78 1.47)"/><polygon class="cls-2" points="513.78 203.62 513.78 209.12 430.78 209.12 347.78 209.12 347.78 203.62 347.78 198.12 430.78 198.12 513.78 198.12 513.78 203.62"/><path class="cls-2" d="M482.7,269.55c1.1,11.6-2.2,20.6-9,24.6-4.6,2.8-11.8,2.6-15.8-.4l-3.3-2.4-1.4,2.1c-1,1.5-2.5,2.2-4.8,2.2H445v-61h9v12c0,6.6.3,12,.6,12a22.38,22.38,0,0,0,4.1-2.7c2.8-2.2,4.6-2.7,8.9-2.7C476.5,253.25,481.8,258.85,482.7,269.55Z" transform="translate(2.78 1.47)"/><path class="cls-2" d="M434.3,287.45l2.2,2.3-2.5,1.9a33.63,33.63,0,0,1-8,3.7c-6.7,2-14.4.7-19.5-3.1-9.6-7.4-10.3-26-1.2-34.4,5.8-5.4,16.5-6.3,23.5-2,4.4,2.7,7.2,8.5,7.2,14.8v5H422c-15.5,0-15.3-.1-12.6,6.5,2.1,4.9,5.5,6.8,11.3,6.2a29.4,29.4,0,0,0,8.1-1.8C431.8,285.35,432.2,285.35,434.3,287.45Z" transform="translate(2.78 1.47)"/><path class="cls-2" d="M405.5,42.05c8.5,4,12.8,10.8,12.7,20.2-.1,12.8-8.9,21.7-21.6,21.8-13.8.1-23.5-10.3-22.4-23.8C375.5,44.55,391.3,35.35,405.5,42.05Z" transform="translate(2.78 1.47)"/><path class="cls-2" d="M399,236.35c0,.3-3.8,13.1-8.5,28.2s-8.8,28.4-9.1,29.3c-.4,1.4-1.6,1.8-5.2,1.8h-4.7l-6.6-20.8c-4.1-12.9-7.1-20.7-7.9-20.7s-3.8,7.8-7.9,20.7l-6.6,20.8h-9.3l-1.6-4.8c-3.7-11.6-16.6-53.7-16.6-54.4,0-1.3,9.7-.9,10.7.4.5.7,3.5,10.2,6.6,21.2,5.3,18.7,6.3,21.5,7,20.5.2-.2,3.2-9.4,6.6-20.4s6.8-20.6,7.3-21.3c1.2-1.3,5.6-1.6,7.5-.4.7.4,4.2,9.9,7.8,21.1,4.7,14.2,7,20,7.7,19.3s3.5-9.7,6.5-20.4,6-19.6,6.6-20C390.8,235.45,399,235.45,399,236.35Z" transform="translate(2.78 1.47)"/><path class="cls-2" d="M277.3,253.75a17,17,0,0,1,12.5,17.9l-.3,3.5-14.1.3-14.2.3.9,3.7a12.49,12.49,0,0,0,4,6.5c2.8,2.5,3.7,2.8,8.3,2.4a29.29,29.29,0,0,0,8.3-1.8c2.9-1.2,3.5-1.1,5,.4,2.3,2.3,1,4.4-4.2,7.1-5,2.6-15.6,2.7-20.2.3-13.2-7-14.8-30.3-2.6-37.8C266.8,252.75,271.2,252.05,277.3,253.75Z" transform="translate(2.78 1.47)"/><path class="cls-2" d="M262.8,42.25c16.5,8.2,16.2,31.9-.6,40a23.19,23.19,0,0,1-9.2,1.8c-23.6.1-30.9-32.1-9.6-42C250.2,38.85,256.2,39,262.8,42.25Z" transform="translate(2.78 1.47)"/><path class="cls-2" d="M246,287.15a6.71,6.71,0,0,1,2,2.6c0,.5-2.1,2.1-4.7,3.6-3.8,2.2-6,2.8-10.9,2.8-7.8,0-13.1-3.2-16.5-10.2-4.6-9.3-2.1-24.5,4.7-29s15.8-5.2,22.4-1.8c4.1,2.1,4.8,4.2,2.2,6.7-1.9,1.9-2.1,1.9-4.3.4-3.9-2.7-10.3-2.1-14.1,1.3-3.2,2.9-3.3,3.1-3.3,11.1s.1,8.2,3.3,11.1c3.8,3.4,8.3,3.8,13.6,1.2C243.8,285.35,244.1,285.35,246,287.15Z" transform="translate(2.78 1.47)"/><path class="cls-2" d="M210,258.25v4.4h-4.1c-9.1,0-10.9,3.4-10.9,20.5v12.5h-9v-42.1l3.8.3c3.2.3,3.7.7,4,3,.4,3.5,1.8,3.5,4.4.2,2.9-3.6,6.8-5.1,10.2-3.8C209.5,253.65,210,255.15,210,258.25Z" transform="translate(2.78 1.47)"/><path class="cls-2" d="M175,274.65v21h-3.5c-2.8,0-3.8-.5-4.6-2.4l-1.2-2.5-4,2.7c-4.8,3.2-12.7,3.6-16.9.8-4.9-3.3-5.8-6.8-5.8-24.5v-16.1h9v15.5c0,14.2.2,15.7,2,17.5,2.5,2.5,8.1,2.6,12.1.3l2.9-1.7v-31.6h10Z" transform="translate(2.78 1.47)"/><path class="cls-2" d="M116.6,254.15c8.7,2.6,13.4,9.7,13.4,20.5s-4.7,17.9-13.4,20.5c-8.9,2.7-15.1,1.2-21.2-4.9-10.8-10.8-6.8-31.2,7.1-36.1C107.7,252.35,110.5,252.35,116.6,254.15Z" transform="translate(2.78 1.47)"/><path class="cls-2" d="M81.1,270.05c6.7,14.8-6.9,29.4-24.2,25.7-5.8-1.3-12.9-5.3-12.9-7.4a10.62,10.62,0,0,1,1.9-3.7l1.9-2.4,5.4,2.7c10.5,5.3,19.8,2.6,19.8-5.7,0-4.7-2.6-7-10.9-9.7-8.9-2.9-12.6-5.3-14.5-9.3-2.4-5-2.1-12.6.7-16.6,5.1-7.6,12.7-10.2,22.7-7.9a29.42,29.42,0,0,1,7.7,3c3.2,2,3.2,2.1,1.8,4.9-2.1,4.1-2.9,4.3-7.4,2-5.7-2.9-12.5-2.7-15.6.5-4.9,4.8-2.4,10,6.4,13.1C75.3,263.35,79.1,265.75,81.1,270.05Z" transform="translate(2.78 1.47)"/><path class="cls-3" d="M205.2.75a32.63,32.63,0,0,0-23.9,17.7l-2.8,5.7-.3,99.7-.2,99.8H89c-49,0-89,.3-89,.6s6.4,9.6,14.1,20.6,14.4,20.9,14.6,21.9-4.6,9.1-14,22.6L.1,310.15l88.9.3,88.8.2.3,11.3c.4,9.8.8,11.9,3.2,16.9,4.9,9.9,13.5,16,25.4,17.8,4.6.7,74.7,1,219.8.8l213-.3,5.7-2.3c7.2-2.9,14.2-9.8,17.7-17.2,2.2-4.6,2.7-7.2,2.9-16.2l.4-10.8,88.8-.2,88.8-.3-14.3-20.5c-7.9-11.3-14.4-21.2-14.5-22.1s6.5-10.9,14.5-22.2,14.5-20.9,14.5-21.2-40-.5-89-.5H666l-.2-99.3-.3-99.2-2.6-5.5c-3.5-7.4-10.5-14.3-17.7-17.2L639.5.15,425,.05C303.8,0,208.2.25,205.2.75Z" transform="translate(2.78 1.47)"/><path class="cls-3" d="M262.8,42.25c16.5,8.2,16.2,31.9-.6,40a23.19,23.19,0,0,1-9.2,1.8c-23.6.1-30.9-32.1-9.6-42C250.2,38.85,256.2,39,262.8,42.25Z" transform="translate(2.78 1.47)"/><path class="cls-3" d="M405.5,42.05c8.5,4,12.8,10.8,12.7,20.2-.1,12.8-8.9,21.7-21.6,21.8-13.8.1-23.5-10.3-22.4-23.8C375.5,44.55,391.3,35.35,405.5,42.05Z" transform="translate(2.78 1.47)"/><polygon class="cls-3" points="567.78 168.12 567.78 174.12 430.78 174.12 293.78 174.12 293.78 168.12 293.78 162.12 430.78 162.12 567.78 162.12 567.78 168.12"/><polygon class="cls-3" points="513.78 203.62 513.78 209.12 430.78 209.12 347.78 209.12 347.78 203.62 347.78 198.12 430.78 198.12 513.78 198.12 513.78 203.62"/><path class="cls-3" d="M71,235.75a29.42,29.42,0,0,1,7.7,3c3.2,2,3.2,2.1,1.8,4.9-2.1,4.1-2.9,4.3-7.4,2-5.7-2.9-12.5-2.7-15.6.5-4.9,4.8-2.4,10,6.4,13.1,11.4,4.1,15.2,6.5,17.2,10.8,6.7,14.8-6.9,29.4-24.2,25.7-5.8-1.3-12.9-5.3-12.9-7.4a10.62,10.62,0,0,1,1.9-3.7l1.9-2.4,5.4,2.7c10.5,5.3,19.8,2.6,19.8-5.7,0-4.7-2.6-7-10.9-9.7-8.9-2.9-12.6-5.3-14.5-9.3-2.4-5-2.1-12.6.7-16.6C53.4,236.05,61,233.45,71,235.75Z" transform="translate(2.78 1.47)"/><path class="cls-3" d="M454,246.65c0,6.6.3,12,.6,12a22.38,22.38,0,0,0,4.1-2.7c2.8-2.2,4.6-2.7,8.9-2.7,8.9,0,14.2,5.6,15.1,16.3,1.1,11.6-2.2,20.6-9,24.6-4.6,2.8-11.8,2.6-15.8-.4l-3.3-2.4-1.4,2.1c-1,1.5-2.5,2.2-4.8,2.2H445v-61h9Z" transform="translate(2.78 1.47)"/><path class="cls-3" d="M551.8,237.65c7.2,3.1,7.8,4.1,4.7,7.8l-2.6,3.1-4.6-2.5c-5-2.6-12.1-3.2-17-1.3-7.4,2.8-11.2,9.9-11.3,20.8,0,9,2.4,14.8,7.8,18.9,3.1,2.4,4.4,2.7,11.1,2.7,6.3,0,8.1-.4,10.8-2.3,4-2.8,4.5-2.8,7.1.8l2.3,3-4.7,3c-13,8.2-31.3,5.2-39.4-6.5-4.1-5.9-6.4-15.3-5.6-22.8C512.6,241,532.2,229.25,551.8,237.65Z" transform="translate(2.78 1.47)"/><polygon class="cls-3" points="756.78 266.62 756.78 297.12 751.78 297.12 746.78 297.12 746.78 266.62 746.78 236.12 751.78 236.12 756.78 236.12 756.78 266.62"/><path class="cls-3" d="M325.7,236.85c.5.7,3.5,10.2,6.6,21.2,5.3,18.7,6.3,21.5,7,20.5.2-.2,3.2-9.4,6.6-20.4s6.8-20.6,7.3-21.3c1.2-1.3,5.6-1.6,7.5-.4.7.4,4.2,9.9,7.8,21.1,4.7,14.2,7,20,7.7,19.3s3.5-9.7,6.5-20.4,6-19.6,6.6-20c1.5-1,9.7-1,9.7-.1,0,.3-3.8,13.1-8.5,28.2s-8.8,28.4-9.1,29.3c-.4,1.4-1.6,1.8-5.2,1.8h-4.7l-6.6-20.8c-4.1-12.9-7.1-20.7-7.9-20.7s-3.8,7.8-7.9,20.7l-6.6,20.8h-9.3l-1.6-4.8c-3.7-11.6-16.6-53.7-16.6-54.4C315,235.15,324.7,235.55,325.7,236.85Z" transform="translate(2.78 1.47)"/><path class="cls-3" d="M116.6,254.15c8.7,2.6,13.4,9.7,13.4,20.5s-4.7,17.9-13.4,20.5c-8.9,2.7-15.1,1.2-21.2-4.9-10.8-10.8-6.8-31.2,7.1-36.1C107.7,252.35,110.5,252.35,116.6,254.15Z" transform="translate(2.78 1.47)"/><path class="cls-3" d="M208.4,253.25c1.1.4,1.6,1.9,1.6,5v4.4h-4.1c-9.1,0-10.9,3.4-10.9,20.5v12.5h-9v-42.1l3.8.3c3.2.3,3.7.7,4,3,.4,3.5,1.8,3.5,4.4.2C201.1,253.45,205,252,208.4,253.25Z" transform="translate(2.78 1.47)"/><path class="cls-3" d="M243,255.15c4.1,2.1,4.8,4.2,2.2,6.7-1.9,1.9-2.1,1.9-4.3.4-3.9-2.7-10.3-2.1-14.1,1.3-3.2,2.9-3.3,3.1-3.3,11.1s.1,8.2,3.3,11.1c3.8,3.4,8.3,3.8,13.6,1.2,3.4-1.6,3.7-1.6,5.6.2a6.71,6.71,0,0,1,2,2.6c0,.5-2.1,2.1-4.7,3.6-3.8,2.2-6,2.8-10.9,2.8-7.8,0-13.1-3.2-16.5-10.2-4.6-9.3-2.1-24.5,4.7-29S236.4,251.75,243,255.15Z" transform="translate(2.78 1.47)"/><path class="cls-3" d="M277.3,253.75a17,17,0,0,1,12.5,17.9l-.3,3.5-14.1.3-14.2.3.9,3.7a12.49,12.49,0,0,0,4,6.5c2.8,2.5,3.7,2.8,8.3,2.4a29.29,29.29,0,0,0,8.3-1.8c2.9-1.2,3.5-1.1,5,.4,2.3,2.3,1,4.4-4.2,7.1-5,2.6-15.6,2.7-20.2.3-13.2-7-14.8-30.3-2.6-37.8C266.8,252.75,271.2,252.05,277.3,253.75Z" transform="translate(2.78 1.47)"/><path class="cls-3" d="M428.8,255.85c4.4,2.7,7.2,8.5,7.2,14.8v5H422c-15.5,0-15.3-.1-12.6,6.5,2.1,4.9,5.5,6.8,11.3,6.2a29.4,29.4,0,0,0,8.1-1.8c3-1.2,3.4-1.2,5.5.9l2.2,2.3-2.5,1.9a33.63,33.63,0,0,1-8,3.7c-6.7,2-14.4.7-19.5-3.1-9.6-7.4-10.3-26-1.2-34.4C411.1,252.45,421.8,251.55,428.8,255.85Z" transform="translate(2.78 1.47)"/><path class="cls-3" d="M594.8,255.65c11.4,6.4,13.5,25,3.8,34.6a20.67,20.67,0,0,1-14.2,6.4c-4.2,0-12.1-3.1-14.6-5.7-8-8.3-7.7-25.6.5-33.1C576,252.55,587.5,251.55,594.8,255.65Z" transform="translate(2.78 1.47)"/><path class="cls-3" d="M643.5,255.05c5.1,3.3,6,6.8,6.3,24.3l.4,16.3H640v-15.3c0-17.8-.7-19.7-6.8-19.7a15.3,15.3,0,0,0-6.9,2l-3.3,2v31H613v-42.1l3.6.3c3.3.3,4.1.8,6.1,4.7a13.12,13.12,0,0,0,3.5-2.2,19.9,19.9,0,0,1,5.3-3C634.7,252.45,640.9,253.35,643.5,255.05Z" transform="translate(2.78 1.47)"/><path class="cls-3" d="M683.3,255.45c3.7,2.1,4.1,3.2,2.3,5.7-1.3,1.8-1.8,1.8-4.8.7-6.8-2.4-13.8-.8-13.8,3.2,0,2.2,3.4,4.5,9,6.2,6.4,1.9,12,6.9,12,10.8,0,10.7-10.9,16.8-23.3,13.2-7-2-8.1-3.4-5.7-6.6,1.8-2.4,1.9-2.4,5.5-.7,7.2,3.4,14.5,1.6,14.5-3.8,0-2.4-2.6-4-10.3-6.5-5.1-1.6-9.4-5.4-10.2-9a14,14,0,0,1,3.8-11.8C667,252.55,677.2,251.85,683.3,255.45Z" transform="translate(2.78 1.47)"/><path class="cls-3" d="M721.6,254.15c8.7,2.6,13.4,9.7,13.4,20.5,0,9.4-3.6,16.1-10.5,19.8-4,2.1-15,2.1-19.1-.1-11.7-6.1-14.9-24.3-6.2-34.3C705.2,253.25,712.3,251.35,721.6,254.15Z" transform="translate(2.78 1.47)"/><path class="cls-3" d="M787.3,253.75a17,17,0,0,1,12.5,17.9l-.3,3.5-14.1.3-14.2.3,1,3.9a13.75,13.75,0,0,0,4.1,6.6c2.6,2.2,3.8,2.5,8.1,2.1a29.29,29.29,0,0,0,8.3-1.8c2.9-1.2,3.5-1.1,5,.4,2.3,2.3,1,4.4-4.2,7.1-5,2.6-15.6,2.7-20.2.3-13.2-7-14.8-30.3-2.6-37.8C776.8,252.75,781.2,252.05,787.3,253.75Z" transform="translate(2.78 1.47)"/><path class="cls-3" d="M148,269.15c0,14.2.2,15.7,2,17.5,2.5,2.5,8.1,2.6,12.1.3l2.9-1.7v-31.6h10v42h-3.5c-2.8,0-3.8-.5-4.6-2.4l-1.2-2.5-4,2.7c-4.8,3.2-12.7,3.6-16.9.8-4.9-3.3-5.8-6.8-5.8-24.5v-16.1h9Z" transform="translate(2.78 1.47)"/><path class="cls-2" d="M346.9,62.15c.1,9.2-7.7,19-17.2,21.6-12,3.2-25.3-6-27.3-18.8-2.5-16.8,16.1-30.6,31.3-23.2A23.33,23.33,0,0,1,346.9,62.15Z" transform="translate(2.78 1.47)"/><path class="cls-3" d="M333.7,41.75a23.33,23.33,0,0,1,13.2,20.4c.1,9.2-7.7,19-17.2,21.6-12,3.2-25.3-6-27.3-18.8C299.9,48.15,318.5,34.35,333.7,41.75Z" transform="translate(2.78 1.47)"/><path class="cls-4" d="M457.1,263.25c-3.1,2.5-3.1,2.7-3.1,11.9,0,8.9.1,9.5,2.6,11.4a11.14,11.14,0,0,0,12.7.1c5.3-4.2,5.7-20.1.7-24.2C466.7,259.75,460.8,260.15,457.1,263.25Z" transform="translate(2.78 1.47)"/><path class="cls-4" d="M103.1,262.75c-3,2.8-4.1,6-4.1,11.9,0,9.3,3.6,14,10.8,14,5.6,0,9.6-3.7,10.7-9.8,1.8-10.6-2.7-18.2-10.7-18.2C106.7,260.65,104.7,261.25,103.1,262.75Z" transform="translate(2.78 1.47)"/><path class="cls-4" d="M264.9,263.55c-5.2,5.3-4.2,6.1,7.2,6.1h10.1l-.6-2.8c-1-4.1-4.1-6.2-9.3-6.2C268.7,260.65,267.3,261.25,264.9,263.55Z" transform="translate(2.78 1.47)"/><path class="cls-4" d="M411.6,262.85a14.58,14.58,0,0,0-3.1,4.5c-.6,2.3-.5,2.3,9.4,2.3,9.5,0,10.1-.1,10.1-2,0-1.2-1.1-3.2-2.5-4.5C422.2,259.75,415.2,259.65,411.6,262.85Z" transform="translate(2.78 1.47)"/><path class="cls-4" d="M577,263.45c-3.2,3.2-4.5,9.1-3.5,15.4s5.1,9.8,10.9,9.8c7.2,0,10.6-4.5,10.6-14,0-9.3-3.6-14-10.8-14C580.8,260.65,579.3,261.25,577,263.45Z" transform="translate(2.78 1.47)"/><path class="cls-4" d="M708.1,262.75c-3,2.8-4.1,6-4.1,11.9,0,9.3,3.6,14,10.8,14,5.6,0,9.6-3.7,10.7-9.8,1.8-10.6-2.7-18.2-10.7-18.2C711.7,260.65,709.7,261.25,708.1,262.75Z" transform="translate(2.78 1.47)"/><path class="cls-4" d="M774.9,263.55c-5.2,5.3-4.2,6.1,7.2,6.1h10.1l-.6-2.8c-1-4.1-4.1-6.2-9.3-6.2C778.7,260.65,777.3,261.25,774.9,263.55Z" transform="translate(2.78 1.47)"/></svg>