<svg id="svg" version="1.1" xmlns="http://www.w3.org/2000/svg" xmlns:xlink="http://www.w3.org/1999/xlink" width="400" height="400" viewBox="0, 0, 400,400"><g id="svgg"><path id="path1" d="M188.133 37.895 C 110.777 43.693,47.941 103.663,38.680 180.533 C 25.988 285.870,114.930 374.812,220.267 362.120 C 294.323 353.198,353.198 294.323,362.120 220.267 C 374.431 118.089,290.598 30.215,188.133 37.895 M208.400 76.807 C 272.622 81.070,324.188 135.156,324.264 198.333 L 324.267 200.533 200.400 200.533 L 76.533 200.533 76.536 198.333 C 76.619 128.961,138.262 72.152,208.400 76.807 M124.400 123.733 L 116.403 131.733 124.533 139.867 L 132.663 148.000 124.533 156.134 L 116.402 164.268 124.467 172.333 L 132.532 180.398 140.666 172.267 L 148.800 164.137 156.934 172.267 L 165.068 180.398 173.133 172.333 L 181.198 164.268 173.067 156.134 L 164.937 148.000 173.067 139.866 L 181.198 131.732 173.133 123.667 L 165.068 115.602 156.934 123.733 L 148.800 131.863 140.732 123.798 C 136.294 119.363,132.603 115.733,132.530 115.733 C 132.457 115.733,128.798 119.333,124.400 123.733 M227.600 123.733 L 219.603 131.733 227.733 139.867 L 235.863 148.000 227.733 156.134 L 219.602 164.268 227.667 172.333 L 235.732 180.398 243.866 172.267 L 252.000 164.137 260.134 172.267 L 268.268 180.398 276.333 172.333 L 284.398 164.268 276.267 156.134 L 268.137 148.000 276.267 139.866 L 284.398 131.732 276.333 123.667 L 268.268 115.602 260.134 123.733 L 252.000 131.863 243.932 123.798 C 239.494 119.363,235.803 115.733,235.730 115.733 C 235.657 115.733,231.998 119.333,227.600 123.733 M229.568 223.064 C 258.996 227.126,283.530 246.221,294.550 273.642 C 296.050 277.375,296.181 276.790,293.000 280.593 C 276.641 300.151,253.050 314.679,227.733 320.786 C 184.857 331.129,137.386 317.405,107.569 286.046 C 104.546 282.867,104.563 283.281,107.347 280.604 C 116.785 271.528,131.280 268.412,143.200 272.897 C 143.503 273.011,144.228 271.767,146.179 267.791 C 161.463 236.628,195.514 218.364,229.568 223.064 " stroke="none" fill="#ec1c24" fill-rule="evenodd"></path><path id="path2" d="M199.142 76.730 C 199.917 76.784,201.117 76.784,201.809 76.729 C 202.501 76.674,201.867 76.630,200.400 76.631 C 198.933 76.631,198.367 76.676,199.142 76.730 M173.065 172.467 L 164.933 180.667 173.133 172.535 C 180.754 164.978,181.453 164.267,181.265 164.267 C 181.227 164.267,177.537 167.957,173.065 172.467 M227.467 172.400 C 231.938 176.873,235.657 180.533,235.730 180.533 C 235.803 180.533,232.205 176.873,227.733 172.400 C 223.262 167.927,219.543 164.267,219.470 164.267 C 219.397 164.267,222.995 167.927,227.467 172.400 M324.047 198.867 L 324.000 200.267 200.415 200.267 L 76.829 200.267 76.721 199.000 L 76.612 197.733 76.639 199.067 L 76.667 200.400 200.342 200.467 C 305.581 200.524,324.038 200.479,324.158 200.164 C 324.236 199.961,324.254 199.271,324.197 198.631 C 324.094 197.480,324.093 197.483,324.047 198.867 M216.867 222.584 C 217.123 222.651,217.543 222.651,217.800 222.584 C 218.057 222.517,217.847 222.462,217.333 222.462 C 216.820 222.462,216.610 222.517,216.867 222.584 M220.067 222.584 C 220.323 222.651,220.743 222.651,221.000 222.584 C 221.257 222.517,221.047 222.462,220.533 222.462 C 220.020 222.462,219.810 222.517,220.067 222.584 M197.267 324.197 C 198.037 324.250,199.297 324.250,200.067 324.197 C 200.837 324.143,200.207 324.099,198.667 324.099 C 197.127 324.099,196.497 324.143,197.267 324.197 " stroke="none" fill="#f48c94" fill-rule="evenodd"></path><path id="path3" d="M156.798 123.667 L 148.667 131.867 156.867 123.735 C 161.377 119.263,165.067 115.573,165.067 115.535 C 165.067 115.347,164.355 116.046,156.798 123.667 M243.733 123.600 C 248.205 128.073,251.923 131.733,251.997 131.733 C 252.070 131.733,248.472 128.073,244.000 123.600 C 239.528 119.127,235.810 115.467,235.737 115.467 C 235.663 115.467,239.262 119.127,243.733 123.600 M124.265 156.200 L 116.133 164.400 124.333 156.268 C 131.954 148.711,132.653 148.000,132.465 148.000 C 132.427 148.000,128.737 151.690,124.265 156.200 M276.267 156.133 C 280.738 160.607,284.457 164.267,284.530 164.267 C 284.603 164.267,281.005 160.607,276.533 156.133 C 272.062 151.660,268.343 148.000,268.270 148.000 C 268.197 148.000,271.795 151.660,276.267 156.133 M276.400 246.400 C 276.973 246.987,277.502 247.467,277.575 247.467 C 277.648 247.467,277.240 246.987,276.667 246.400 C 276.094 245.813,275.565 245.333,275.492 245.333 C 275.418 245.333,275.827 245.813,276.400 246.400 " stroke="none" fill="#f47073" fill-rule="evenodd"></path><path id="path4" d="M124.267 172.400 C 128.738 176.873,132.457 180.533,132.530 180.533 C 132.603 180.533,129.005 176.873,124.533 172.400 C 120.062 167.927,116.343 164.267,116.270 164.267 C 116.197 164.267,119.795 167.927,124.267 172.400 M276.265 172.467 L 268.133 180.667 276.333 172.535 C 280.843 168.063,284.533 164.373,284.533 164.335 C 284.533 164.147,283.822 164.846,276.265 172.467 M106.919 281.000 L 106.000 282.000 107.000 281.081 C 107.931 280.226,108.123 280.000,107.919 280.000 C 107.874 280.000,107.424 280.450,106.919 281.000 M108.933 287.467 C 109.656 288.200,110.307 288.800,110.380 288.800 C 110.453 288.800,109.922 288.200,109.200 287.467 C 108.478 286.733,107.827 286.133,107.753 286.133 C 107.680 286.133,108.211 286.733,108.933 287.467 " stroke="none" fill="#ec464c" fill-rule="evenodd"></path><path id="path5" d="M112.794 113.000 L 110.533 115.333 112.867 113.073 C 115.034 110.973,115.321 110.667,115.127 110.667 C 115.088 110.667,114.038 111.717,112.794 113.000 M287.733 112.933 C 288.974 114.180,290.048 115.200,290.122 115.200 C 290.195 115.200,289.240 114.180,288.000 112.933 C 286.760 111.687,285.685 110.667,285.612 110.667 C 285.538 110.667,286.493 111.687,287.733 112.933 M140.533 123.600 C 145.005 128.073,148.723 131.733,148.797 131.733 C 148.870 131.733,145.272 128.073,140.800 123.600 C 136.328 119.127,132.610 115.467,132.537 115.467 C 132.463 115.467,136.062 119.127,140.533 123.600 M173.066 123.533 L 181.197 131.733 173.066 139.867 L 164.936 148.001 173.201 156.201 L 181.466 164.400 173.334 156.200 L 165.203 148.000 173.334 139.866 L 181.464 131.732 173.199 123.533 L 164.934 115.333 173.066 123.533 M227.467 123.600 L 219.337 131.733 227.467 139.867 L 235.597 148.000 227.466 156.200 L 219.334 164.400 227.599 156.201 L 235.864 148.001 227.734 139.867 L 219.603 131.733 227.733 123.600 C 232.205 119.127,235.803 115.467,235.730 115.467 C 235.657 115.467,231.938 119.127,227.467 123.600 M259.998 123.667 L 251.867 131.867 260.067 123.735 C 267.687 116.178,268.387 115.467,268.198 115.467 C 268.161 115.467,264.471 119.157,259.998 123.667 M140.532 172.467 L 132.400 180.667 140.600 172.535 C 145.110 168.063,148.800 164.373,148.800 164.335 C 148.800 164.147,148.089 164.846,140.532 172.467 M260.000 172.400 C 264.472 176.873,268.190 180.533,268.263 180.533 C 268.337 180.533,264.738 176.873,260.267 172.400 C 255.795 167.927,252.077 164.267,252.003 164.267 C 251.930 164.267,255.528 167.927,260.000 172.400 M218.467 222.584 C 218.723 222.651,219.143 222.651,219.400 222.584 C 219.657 222.517,219.447 222.462,218.933 222.462 C 218.420 222.462,218.210 222.517,218.467 222.584 M163.050 244.867 L 162.267 245.733 163.133 244.950 C 163.610 244.519,164.000 244.129,164.000 244.083 C 164.000 243.877,163.780 244.059,163.050 244.867 M160.117 247.800 L 159.333 248.667 160.200 247.883 C 160.677 247.453,161.067 247.063,161.067 247.017 C 161.067 246.811,160.847 246.992,160.117 247.800 " stroke="none" fill="#f49494" fill-rule="evenodd"></path><path id="path6" d="M124.133 123.734 L 116.136 131.734 124.401 139.934 L 132.666 148.133 124.534 139.933 L 116.403 131.733 124.400 123.733 C 128.798 119.333,132.337 115.733,132.263 115.733 C 132.190 115.733,128.531 119.334,124.133 123.734 M276.399 123.667 L 284.397 131.733 276.266 139.933 L 268.134 148.133 276.400 139.933 L 284.666 131.733 276.533 123.667 L 268.401 115.600 276.399 123.667 M156.800 172.400 C 161.272 176.873,164.990 180.533,165.063 180.533 C 165.137 180.533,161.538 176.873,157.067 172.400 C 152.595 167.927,148.877 164.267,148.803 164.267 C 148.730 164.267,152.328 167.927,156.800 172.400 M243.732 172.467 L 235.600 180.667 243.800 172.535 C 251.421 164.978,252.120 164.267,251.932 164.267 C 251.894 164.267,248.204 167.957,243.732 172.467 " stroke="none" fill="#f4545c" fill-rule="evenodd"></path><path id="path7" d="M286.119 287.933 L 285.200 288.933 286.200 288.014 C 286.750 287.509,287.200 287.059,287.200 287.014 C 287.200 286.811,286.974 287.003,286.119 287.933 " stroke="none" fill="#ec343c" fill-rule="evenodd"></path><path id="path8" d="M161.333 246.267 C 160.686 246.927,160.216 247.467,160.289 247.467 C 160.362 247.467,160.952 246.927,161.600 246.267 C 162.248 245.607,162.718 245.067,162.644 245.067 C 162.571 245.067,161.981 245.607,161.333 246.267 " stroke="none" fill="#ec2c32" fill-rule="evenodd"></path><path id="path0" d="M192.267 76.964 C 180.134 78.010,170.768 79.876,160.933 83.204 C 112.249 99.681,78.607 144.639,76.878 195.533 L 76.717 200.267 200.400 200.267 L 324.083 200.267 323.922 195.533 C 321.959 137.753,278.668 88.262,221.600 78.557 C 213.575 77.192,198.876 76.394,192.267 76.964 M140.732 123.532 L 148.800 131.597 156.934 123.466 L 165.068 115.336 173.266 123.534 L 181.464 131.732 173.334 139.866 L 165.203 148.000 173.334 156.134 L 181.464 164.268 173.266 172.466 L 165.068 180.664 156.934 172.534 L 148.800 164.403 140.666 172.534 L 132.532 180.664 124.334 172.466 L 116.136 164.268 124.266 156.134 L 132.397 148.000 124.267 139.867 L 116.137 131.733 124.267 123.600 C 128.738 119.127,132.457 115.467,132.530 115.467 C 132.603 115.467,136.294 119.096,140.732 123.532 M243.932 123.532 L 252.000 131.597 260.134 123.466 L 268.268 115.336 276.466 123.534 L 284.664 131.732 276.534 139.866 L 268.403 148.000 276.534 156.134 L 284.664 164.268 276.466 172.466 L 268.268 180.664 260.134 172.534 L 252.000 164.403 243.866 172.534 L 235.732 180.664 227.534 172.466 L 219.336 164.268 227.466 156.134 L 235.597 148.000 227.467 139.867 L 219.337 131.733 227.467 123.600 C 231.938 119.127,235.657 115.467,235.730 115.467 C 235.803 115.467,239.494 119.096,243.932 123.532 M212.400 222.840 C 211.960 222.891,210.460 223.062,209.067 223.220 C 181.708 226.324,156.316 244.935,145.225 270.013 C 143.617 273.649,143.860 273.440,141.984 272.794 C 130.039 268.685,115.372 272.273,106.733 281.419 C 104.908 283.352,104.736 282.955,109.400 287.573 C 141.583 319.440,188.812 331.606,232.608 319.312 C 255.502 312.885,277.110 298.998,292.600 280.758 C 295.907 276.863,295.793 277.327,294.354 273.647 C 283.435 245.714,256.695 225.721,226.533 222.938 C 223.833 222.689,214.266 222.622,212.400 222.840 " stroke="none" fill="#fbfbfb" fill-rule="evenodd"></path><path id="path1" d="M188.133 37.895 C 110.777 43.693,47.941 103.663,38.680 180.533 C 25.988 285.870,114.930 374.812,220.267 362.120 C 294.323 353.198,353.198 294.323,362.120 220.267 C 374.431 118.089,290.598 30.215,188.133 37.895 M208.400 76.807 C 272.622 81.070,324.188 135.156,324.264 198.333 L 324.267 200.533 200.400 200.533 L 76.533 200.533 76.536 198.333 C 76.619 128.961,138.262 72.152,208.400 76.807 M124.400 123.733 L 116.403 131.733 124.533 139.867 L 132.663 148.000 124.533 156.134 L 116.402 164.268 124.467 172.333 L 132.532 180.398 140.666 172.267 L 148.800 164.137 156.934 172.267 L 165.068 180.398 173.133 172.333 L 181.198 164.268 173.067 156.134 L 164.937 148.000 173.067 139.866 L 181.198 131.732 173.133 123.667 L 165.068 115.602 156.934 123.733 L 148.800 131.863 140.732 123.798 C 136.294 119.363,132.603 115.733,132.530 115.733 C 132.457 115.733,128.798 119.333,124.400 123.733 M227.600 123.733 L 219.603 131.733 227.733 139.867 L 235.863 148.000 227.733 156.134 L 219.602 164.268 227.667 172.333 L 235.732 180.398 243.866 172.267 L 252.000 164.137 260.134 172.267 L 268.268 180.398 276.333 172.333 L 284.398 164.268 276.267 156.134 L 268.137 148.000 276.267 139.866 L 284.398 131.732 276.333 123.667 L 268.268 115.602 260.134 123.733 L 252.000 131.863 243.932 123.798 C 239.494 119.363,235.803 115.733,235.730 115.733 C 235.657 115.733,231.998 119.333,227.600 123.733 M229.568 223.064 C 258.996 227.126,283.530 246.221,294.550 273.642 C 296.050 277.375,296.181 276.790,293.000 280.593 C 276.641 300.151,253.050 314.679,227.733 320.786 C 184.857 331.129,137.386 317.405,107.569 286.046 C 104.546 282.867,104.563 283.281,107.347 280.604 C 116.785 271.528,131.280 268.412,143.200 272.897 C 143.503 273.011,144.228 271.767,146.179 267.791 C 161.463 236.628,195.514 218.364,229.568 223.064 " stroke="none" fill="#ec1c24" fill-rule="evenodd"></path><path id="path2" d="M199.142 76.730 C 199.917 76.784,201.117 76.784,201.809 76.729 C 202.501 76.674,201.867 76.630,200.400 76.631 C 198.933 76.631,198.367 76.676,199.142 76.730 M173.065 172.467 L 164.933 180.667 173.133 172.535 C 180.754 164.978,181.453 164.267,181.265 164.267 C 181.227 164.267,177.537 167.957,173.065 172.467 M227.467 172.400 C 231.938 176.873,235.657 180.533,235.730 180.533 C 235.803 180.533,232.205 176.873,227.733 172.400 C 223.262 167.927,219.543 164.267,219.470 164.267 C 219.397 164.267,222.995 167.927,227.467 172.400 M324.047 198.867 L 324.000 200.267 200.415 200.267 L 76.829 200.267 76.721 199.000 L 76.612 197.733 76.639 199.067 L 76.667 200.400 200.342 200.467 C 305.581 200.524,324.038 200.479,324.158 200.164 C 324.236 199.961,324.254 199.271,324.197 198.631 C 324.094 197.480,324.093 197.483,324.047 198.867 M216.867 222.584 C 217.123 222.651,217.543 222.651,217.800 222.584 C 218.057 222.517,217.847 222.462,217.333 222.462 C 216.820 222.462,216.610 222.517,216.867 222.584 M220.067 222.584 C 220.323 222.651,220.743 222.651,221.000 222.584 C 221.257 222.517,221.047 222.462,220.533 222.462 C 220.020 222.462,219.810 222.517,220.067 222.584 M197.267 324.197 C 198.037 324.250,199.297 324.250,200.067 324.197 C 200.837 324.143,200.207 324.099,198.667 324.099 C 197.127 324.099,196.497 324.143,197.267 324.197 " stroke="none" fill="#f48c94" fill-rule="evenodd"></path><path id="path3" d="M156.798 123.667 L 148.667 131.867 156.867 123.735 C 161.377 119.263,165.067 115.573,165.067 115.535 C 165.067 115.347,164.355 116.046,156.798 123.667 M243.733 123.600 C 248.205 128.073,251.923 131.733,251.997 131.733 C 252.070 131.733,248.472 128.073,244.000 123.600 C 239.528 119.127,235.810 115.467,235.737 115.467 C 235.663 115.467,239.262 119.127,243.733 123.600 M124.265 156.200 L 116.133 164.400 124.333 156.268 C 131.954 148.711,132.653 148.000,132.465 148.000 C 132.427 148.000,128.737 151.690,124.265 156.200 M276.267 156.133 C 280.738 160.607,284.457 164.267,284.530 164.267 C 284.603 164.267,281.005 160.607,276.533 156.133 C 272.062 151.660,268.343 148.000,268.270 148.000 C 268.197 148.000,271.795 151.660,276.267 156.133 M276.400 246.400 C 276.973 246.987,277.502 247.467,277.575 247.467 C 277.648 247.467,277.240 246.987,276.667 246.400 C 276.094 245.813,275.565 245.333,275.492 245.333 C 275.418 245.333,275.827 245.813,276.400 246.400 " stroke="none" fill="#f47073" fill-rule="evenodd"></path><path id="path4" d="M124.267 172.400 C 128.738 176.873,132.457 180.533,132.530 180.533 C 132.603 180.533,129.005 176.873,124.533 172.400 C 120.062 167.927,116.343 164.267,116.270 164.267 C 116.197 164.267,119.795 167.927,124.267 172.400 M276.265 172.467 L 268.133 180.667 276.333 172.535 C 280.843 168.063,284.533 164.373,284.533 164.335 C 284.533 164.147,283.822 164.846,276.265 172.467 M106.919 281.000 L 106.000 282.000 107.000 281.081 C 107.931 280.226,108.123 280.000,107.919 280.000 C 107.874 280.000,107.424 280.450,106.919 281.000 M108.933 287.467 C 109.656 288.200,110.307 288.800,110.380 288.800 C 110.453 288.800,109.922 288.200,109.200 287.467 C 108.478 286.733,107.827 286.133,107.753 286.133 C 107.680 286.133,108.211 286.733,108.933 287.467 " stroke="none" fill="#ec464c" fill-rule="evenodd"></path></g></svg>