<svg id="svg" version="1.1" xmlns="http://www.w3.org/2000/svg" xmlns:xlink="http://www.w3.org/1999/xlink" width="400" height="400" viewBox="0, 0, 400,400"><g id="svgg"><path id="path0" d="M193.109 179.695 L 193.000 239.000 192.067 241.600 C 185.300 260.461,163.492 265.528,149.460 251.501 L 145.921 247.962 142.660 249.362 C 138.753 251.040,130.678 253.397,127.545 253.775 C 123.729 254.235,123.674 254.402,125.893 258.826 C 136.289 279.556,163.512 289.065,188.200 280.591 C 202.995 275.513,214.075 262.361,218.185 245.000 C 220.002 237.322,220.049 235.476,219.921 176.400 L 219.800 120.600 206.509 120.495 L 193.218 120.389 193.109 179.695 M288.000 120.794 C 261.728 123.427,243.304 140.601,242.505 163.201 C 241.834 182.203,252.724 197.464,273.000 205.938 C 274.540 206.582,280.390 209.131,286.000 211.602 C 291.610 214.074,297.664 216.692,299.454 217.421 C 315.087 223.783,320.190 229.158,320.131 239.200 C 319.984 264.242,282.012 267.393,254.070 244.681 C 252.459 243.371,251.003 242.457,250.834 242.650 C 249.391 244.301,240.732 254.502,238.491 257.192 C 235.325 260.992,235.320 260.721,238.600 263.581 C 250.318 273.797,263.471 279.960,279.400 282.700 C 300.081 286.257,322.790 280.210,335.395 267.791 C 353.356 250.092,352.372 219.713,333.341 204.404 C 326.376 198.801,324.263 197.754,297.000 186.399 C 274.236 176.919,270.205 173.397,270.216 163.000 C 270.239 141.465,304.101 137.268,327.134 155.946 C 329.313 157.713,328.608 158.273,336.614 148.400 L 343.262 140.200 341.131 138.249 C 327.237 125.532,307.015 118.888,288.000 120.794 " stroke="none" fill="#3bab7b" fill-rule="evenodd"></path><path id="path1" d="M67.398 121.300 C 67.279 121.795,67.230 148.840,67.290 181.400 L 67.400 240.600 92.000 240.722 C 124.062 240.881,130.784 240.168,140.102 235.623 L 142.200 234.600 142.462 231.600 C 143.531 219.373,152.672 210.133,165.173 208.642 L 168.946 208.192 170.442 204.502 C 175.862 191.127,176.166 171.747,171.198 156.265 C 166.238 140.805,154.016 128.818,138.000 123.703 C 128.679 120.726,124.658 120.430,93.308 120.413 L 67.615 120.400 67.398 121.300 M122.400 146.563 C 136.684 149.704,144.800 161.812,144.800 179.979 C 144.800 195.403,138.836 207.018,128.200 212.307 C 123.194 214.796,119.865 215.282,107.400 215.344 L 96.200 215.400 96.098 180.460 L 95.996 145.520 107.698 145.712 C 116.508 145.856,120.141 146.067,122.400 146.563 M163.164 219.139 C 148.166 224.069,148.890 244.967,164.200 249.056 C 171.903 251.114,180.352 246.253,182.628 238.454 C 186.084 226.607,174.727 215.337,163.164 219.139 " stroke="none" fill="#fbfbfb" fill-rule="evenodd"></path><path id="path2" d="M0.000 200.000 L 0.000 400.000 200.000 400.000 L 400.000 400.000 400.000 200.000 L 400.000 0.000 200.000 0.000 L 0.000 0.000 0.000 200.000 M127.800 120.337 C 131.108 120.860,133.670 121.387,135.600 121.943 C 136.370 122.165,137.450 122.463,138.000 122.606 C 138.550 122.750,139.405 123.032,139.900 123.233 C 140.395 123.435,141.205 123.761,141.700 123.958 C 144.625 125.120,150.864 128.386,151.932 129.315 C 152.299 129.634,152.798 129.964,153.039 130.048 C 157.400 131.559,167.404 143.892,170.441 151.500 C 171.263 153.560,171.619 154.448,171.967 155.300 C 172.168 155.795,172.450 156.650,172.594 157.200 C 172.737 157.750,173.037 158.830,173.260 159.600 C 173.730 161.217,174.247 163.827,174.885 167.800 C 175.508 171.672,175.479 188.238,174.843 192.000 C 174.564 193.650,174.242 195.676,174.126 196.503 C 174.010 197.329,173.755 198.105,173.558 198.226 C 173.361 198.348,173.200 198.889,173.200 199.429 C 173.200 200.375,173.072 200.741,172.062 202.695 C 171.808 203.187,171.584 203.907,171.564 204.295 C 171.440 206.706,169.419 208.994,167.184 209.252 C 162.333 209.813,159.501 210.579,156.600 212.118 C 156.160 212.351,155.438 212.735,154.996 212.971 C 152.696 214.199,150.331 216.307,148.457 218.800 C 147.878 219.570,147.314 220.290,147.202 220.400 C 146.938 220.661,146.214 221.986,144.800 224.795 C 144.580 225.232,144.400 226.012,144.400 226.528 C 144.400 227.044,144.265 227.600,144.100 227.763 C 143.935 227.927,143.620 229.680,143.400 231.659 C 143.041 234.888,142.897 235.314,142.000 235.796 C 140.126 236.804,137.210 238.000,136.628 238.000 C 136.309 238.000,135.936 238.180,135.800 238.400 C 135.664 238.620,135.124 238.800,134.600 238.800 C 134.076 238.800,133.548 238.961,133.426 239.158 C 133.305 239.355,132.529 239.617,131.703 239.742 C 130.876 239.867,129.120 240.166,127.800 240.408 C 122.104 241.450,117.216 241.652,93.014 241.847 C 68.927 242.041,67.398 242.012,66.914 241.350 C 66.372 240.609,66.109 121.623,66.647 120.223 C 66.950 119.432,122.733 119.537,127.800 120.337 M220.167 119.843 C 220.919 120.131,221.133 229.707,220.396 236.702 C 217.855 260.821,203.471 278.388,182.500 282.982 C 157.851 288.382,134.692 278.523,124.749 258.396 C 122.581 254.009,122.731 253.766,128.200 252.804 C 133.397 251.890,142.238 249.163,143.800 247.992 C 145.439 246.764,146.651 247.133,148.391 249.388 C 159.652 263.985,183.536 260.673,190.436 243.558 C 192.426 238.623,192.371 240.442,192.386 178.580 C 192.397 134.002,192.511 120.449,192.880 120.080 C 193.388 119.572,218.884 119.350,220.167 119.843 M303.215 120.183 C 317.738 122.029,331.824 128.484,341.945 137.929 C 344.565 140.375,345.128 139.118,336.813 149.378 C 329.100 158.895,329.372 158.711,326.445 156.397 C 303.672 138.397,270.836 142.317,270.804 163.040 C 270.789 172.775,275.451 176.712,298.000 186.006 C 324.889 197.088,329.976 199.760,336.705 206.337 C 347.450 216.837,351.619 232.879,347.586 248.200 C 342.920 265.923,328.400 278.378,307.000 283.015 C 287.718 287.193,264.136 282.394,246.645 270.732 C 240.729 266.787,234.524 261.385,234.855 260.468 C 235.153 259.644,250.513 241.795,251.028 241.674 C 251.323 241.605,252.968 242.705,254.683 244.119 C 276.948 262.481,309.692 264.291,317.657 247.600 C 323.503 235.352,317.942 226.104,300.200 218.566 C 268.968 205.297,263.224 202.428,256.293 196.634 C 241.776 184.497,237.445 163.832,245.808 146.600 C 254.966 127.730,278.261 117.010,303.215 120.183 M96.800 180.828 L 96.800 214.891 106.500 214.652 C 119.078 214.343,122.779 213.843,126.495 211.953 C 126.877 211.759,127.381 211.600,127.617 211.600 C 129.038 211.600,135.203 206.446,137.186 203.600 C 137.723 202.830,138.261 202.110,138.383 202.000 C 138.833 201.594,141.200 196.669,141.200 196.138 C 141.200 195.836,141.362 195.277,141.561 194.895 C 141.967 194.113,142.521 192.052,143.199 188.800 C 143.992 184.992,143.347 168.865,142.359 167.820 C 142.162 167.611,142.000 167.024,142.000 166.515 C 142.000 166.006,141.841 165.277,141.647 164.895 C 141.452 164.513,141.115 163.750,140.897 163.200 C 138.597 157.391,133.612 151.827,128.859 149.766 C 128.056 149.418,127.087 148.968,126.705 148.766 C 126.323 148.565,125.659 148.400,125.229 148.400 C 124.799 148.400,124.348 148.239,124.226 148.042 C 123.797 147.348,120.475 147.112,108.700 146.940 L 96.800 146.766 96.800 180.828 M170.694 217.655 C 176.544 219.052,181.661 223.368,183.195 228.200 C 183.474 229.080,183.859 230.213,184.051 230.719 C 186.035 235.943,181.438 245.646,175.678 248.392 C 174.645 248.885,173.487 249.448,173.105 249.644 C 172.723 249.840,171.970 250.000,171.431 250.000 C 170.893 250.000,169.971 250.183,169.382 250.407 C 168.642 250.688,167.556 250.673,165.856 250.357 C 163.302 249.883,162.853 249.742,160.200 248.582 C 158.205 247.709,153.877 243.346,152.994 241.318 C 152.630 240.483,152.150 239.459,151.926 239.041 C 151.398 238.055,151.398 229.945,151.926 228.959 C 152.150 228.541,152.608 227.570,152.945 226.800 C 154.673 222.852,160.723 218.013,163.956 217.994 C 164.530 217.991,165.270 217.813,165.600 217.600 C 166.405 217.080,168.375 217.101,170.694 217.655 " stroke="none" fill="#0c0c14" fill-rule="evenodd"></path><path id="path3" d="M192.899 178.495 L 192.997 237.000 193.100 178.695 L 193.203 120.389 206.501 120.495 L 219.800 120.600 220.003 177.600 L 220.205 234.600 220.203 177.400 L 220.200 120.200 206.500 120.095 L 192.800 119.989 192.899 178.495 M287.600 120.357 C 286.830 120.495,290.160 120.607,295.000 120.605 C 299.840 120.603,302.990 120.480,302.000 120.330 C 299.775 119.995,289.507 120.014,287.600 120.357 M282.200 121.200 L 281.400 121.544 282.200 121.549 C 282.640 121.552,283.720 121.405,284.600 121.223 L 286.200 120.892 284.600 120.874 C 283.720 120.864,282.640 121.011,282.200 121.200 M307.200 121.611 C 310.863 122.399,311.863 122.529,311.507 122.173 C 311.165 121.832,305.945 120.794,304.800 120.840 C 304.250 120.862,305.330 121.209,307.200 121.611 M278.600 122.000 L 277.800 122.344 278.600 122.332 C 279.040 122.326,279.850 122.176,280.400 122.000 L 281.400 121.680 280.400 121.668 C 279.850 121.662,279.040 121.811,278.600 122.000 M275.600 122.800 C 275.103 123.121,275.138 123.188,275.800 123.188 C 276.240 123.188,276.870 123.013,277.200 122.800 C 277.697 122.479,277.662 122.412,277.000 122.412 C 276.560 122.412,275.930 122.587,275.600 122.800 M316.470 123.988 C 319.039 124.842,321.530 125.748,322.005 126.002 C 322.480 126.257,322.963 126.371,323.077 126.256 C 323.477 125.857,313.846 122.379,312.447 122.418 C 312.091 122.427,313.902 123.134,316.470 123.988 M270.787 124.536 C 259.620 129.221,251.804 135.972,246.836 145.224 C 245.031 148.586,243.188 153.366,243.222 154.598 C 243.234 155.039,243.763 153.843,244.397 151.939 C 248.269 140.309,257.447 130.732,269.689 125.548 C 274.940 123.324,275.086 123.253,274.400 123.263 C 274.070 123.267,272.444 123.840,270.787 124.536 M327.809 128.837 C 332.869 131.646,337.122 134.631,340.730 137.904 L 343.260 140.200 336.613 148.400 C 328.609 158.273,329.313 157.713,327.134 155.946 C 324.302 153.650,320.811 151.414,317.309 149.654 C 312.648 147.312,312.651 147.612,317.313 150.106 C 319.466 151.258,322.942 153.426,325.037 154.925 C 329.687 158.249,329.141 158.386,333.667 152.765 C 335.720 150.216,338.807 146.401,340.526 144.287 C 343.864 140.183,343.934 139.901,342.014 138.290 C 335.956 133.208,331.622 130.236,326.499 127.650 C 322.404 125.583,323.127 126.238,327.809 128.837 M291.000 144.400 C 289.713 144.577,291.139 144.676,295.000 144.678 C 299.494 144.681,300.398 144.608,298.600 144.385 C 295.724 144.028,293.684 144.032,291.000 144.400 M285.800 145.200 C 284.706 145.670,286.533 145.670,288.000 145.200 C 288.975 144.888,288.970 144.879,287.800 144.868 C 287.140 144.862,286.240 145.011,285.800 145.200 M303.800 145.372 C 308.081 146.343,309.278 146.485,307.200 145.778 C 306.210 145.441,304.500 145.089,303.400 144.996 L 301.400 144.828 303.800 145.372 M281.925 146.370 C 276.957 148.313,271.059 153.997,271.219 156.687 C 271.229 156.859,271.677 156.155,272.215 155.123 C 274.127 151.451,278.421 147.994,282.886 146.534 C 283.939 146.190,284.800 145.839,284.800 145.754 C 284.800 145.434,283.737 145.662,281.925 146.370 M309.200 146.581 C 309.200 146.681,309.785 146.931,310.500 147.138 C 311.215 147.344,312.160 147.626,312.600 147.763 C 313.040 147.901,312.680 147.655,311.800 147.217 C 310.269 146.455,309.200 146.194,309.200 146.581 M242.673 156.153 C 242.523 156.545,242.418 157.436,242.440 158.133 C 242.479 159.367,242.490 159.359,242.849 157.827 C 243.245 156.137,243.124 154.979,242.673 156.153 M270.598 157.900 C 270.440 158.285,270.261 160.220,270.199 162.200 L 270.088 165.800 270.379 162.600 C 270.539 160.840,270.809 158.905,270.978 158.300 C 271.320 157.083,271.050 156.799,270.598 157.900 M242.154 164.800 C 242.154 167.550,242.218 168.675,242.296 167.300 C 242.374 165.925,242.374 163.675,242.296 162.300 C 242.218 160.925,242.154 162.050,242.154 164.800 M270.434 167.000 C 270.422 167.440,270.587 168.070,270.800 168.400 C 271.314 169.195,271.314 168.196,270.800 167.000 L 270.456 166.200 270.434 167.000 M271.200 169.429 C 271.200 172.280,278.026 178.002,285.737 181.616 C 290.806 183.991,290.449 183.500,285.200 180.879 C 278.048 177.306,273.814 173.946,272.213 170.570 C 271.619 169.319,271.200 168.847,271.200 169.429 M242.428 171.240 C 242.413 172.032,242.565 173.202,242.767 173.840 C 242.969 174.478,243.248 175.516,243.386 176.147 C 243.525 176.778,243.713 177.221,243.802 177.131 C 243.892 177.041,243.626 175.355,243.211 173.384 C 242.700 170.959,242.447 170.266,242.428 171.240 M244.027 177.881 C 243.936 179.506,247.961 186.953,250.918 190.632 C 256.880 198.047,263.355 202.227,280.200 209.536 C 283.720 211.063,288.917 213.330,291.750 214.573 C 294.582 215.816,296.973 216.761,297.062 216.672 C 297.207 216.527,293.047 214.666,274.800 206.712 C 258.190 199.472,250.122 191.941,244.471 178.400 C 244.242 177.850,244.042 177.617,244.027 177.881 M290.062 183.395 C 290.320 183.653,308.426 191.204,308.749 191.188 C 309.486 191.152,307.362 190.218,295.027 185.158 C 290.366 183.246,289.663 182.996,290.062 183.395 M309.200 191.359 C 309.200 191.447,311.225 192.364,313.700 193.398 C 330.232 200.302,338.687 207.016,343.962 217.432 C 344.844 219.174,345.574 220.385,345.583 220.122 C 345.722 216.172,336.633 205.623,328.600 200.411 C 323.845 197.325,309.200 190.492,309.200 191.359 M299.000 217.560 C 299.880 217.988,301.964 218.957,303.631 219.712 C 311.027 223.061,315.998 226.882,317.829 230.623 C 318.422 231.835,318.985 232.748,319.080 232.653 C 319.472 232.261,317.127 228.398,315.451 226.674 C 312.694 223.837,302.510 218.080,298.400 217.035 C 297.850 216.895,298.120 217.131,299.000 217.560 M345.611 221.020 C 345.632 221.716,347.143 225.809,347.172 225.246 C 347.211 224.471,346.334 221.478,345.933 221.020 C 345.723 220.780,345.604 220.780,345.611 221.020 M347.275 226.800 C 347.286 227.350,347.432 228.340,347.600 229.000 L 347.905 230.200 347.925 228.800 C 347.935 228.030,347.789 227.040,347.600 226.600 C 347.288 225.874,347.258 225.893,347.275 226.800 M347.908 237.600 C 347.771 241.450,347.552 245.230,347.423 246.000 C 347.243 247.069,347.276 247.200,347.562 246.553 C 348.334 244.802,348.949 236.710,348.546 233.599 C 348.167 230.671,348.152 230.765,347.908 237.600 M319.246 233.800 C 319.315 235.431,319.915 236.787,319.954 235.400 C 319.973 234.740,319.813 233.930,319.600 233.600 C 319.281 233.106,319.218 233.141,319.246 233.800 M219.471 237.746 C 219.299 239.476,219.243 240.976,219.346 241.080 C 219.629 241.362,220.091 237.151,219.927 235.788 C 219.849 235.135,219.644 236.016,219.471 237.746 M320.128 239.200 C 320.128 240.630,320.201 241.215,320.289 240.500 C 320.378 239.785,320.378 238.615,320.289 237.900 C 320.201 237.185,320.128 237.770,320.128 239.200 M192.219 238.727 C 192.055 239.677,192.017 240.550,192.134 240.668 C 192.426 240.959,192.926 238.173,192.700 237.521 C 192.600 237.235,192.384 237.777,192.219 238.727 M191.035 242.964 C 189.682 246.507,188.264 248.597,185.030 251.813 C 181.963 254.864,180.918 255.538,175.600 257.902 C 175.050 258.146,174.863 258.358,175.185 258.373 C 179.908 258.591,193.156 245.268,191.916 241.547 C 191.829 241.286,191.432 241.924,191.035 242.964 M218.485 243.800 C 218.212 245.120,217.874 246.650,217.735 247.200 C 217.596 247.750,217.601 248.092,217.747 247.961 C 218.184 247.566,219.243 243.095,219.108 242.216 C 219.039 241.767,218.758 242.480,218.485 243.800 M249.200 243.754 C 248.430 244.691,245.010 248.744,241.600 252.761 C 234.385 261.260,234.801 260.535,236.256 262.075 C 240.841 266.927,259.071 278.662,260.227 277.506 C 260.332 277.401,259.167 276.756,257.639 276.072 C 250.867 273.045,237.607 263.860,235.932 261.037 C 235.784 260.787,236.928 259.067,238.491 257.192 C 240.732 254.502,249.391 244.301,250.834 242.650 C 251.003 242.457,252.459 243.377,254.070 244.693 C 261.847 251.044,277.368 258.966,280.757 258.313 C 281.086 258.250,280.195 257.868,278.777 257.464 C 270.458 255.095,262.102 250.606,254.714 244.536 C 251.086 241.555,251.016 241.545,249.200 243.754 M319.453 243.341 C 319.286 244.188,319.241 244.975,319.355 245.088 C 319.658 245.391,320.097 243.385,319.914 242.532 C 319.820 242.090,319.637 242.411,319.453 243.341 M317.999 247.693 C 315.746 252.457,310.184 256.430,303.226 258.244 C 301.342 258.736,300.164 259.152,300.608 259.169 C 307.033 259.417,320.423 249.868,319.122 245.966 C 319.052 245.757,318.547 246.534,317.999 247.693 M149.266 251.317 C 151.677 253.717,153.870 255.489,155.456 256.317 C 158.549 257.933,159.343 257.995,156.439 256.394 C 153.196 254.607,150.123 252.098,148.269 249.723 C 147.357 248.555,146.368 247.600,146.072 247.600 C 145.775 247.600,147.213 249.273,149.266 251.317 M345.862 251.086 C 341.988 263.048,332.123 273.152,319.109 278.484 C 317.408 279.180,316.097 279.830,316.194 279.927 C 316.707 280.440,325.329 276.218,329.399 273.461 C 333.047 270.990,338.486 265.524,340.932 261.871 C 343.982 257.318,347.445 249.693,347.135 248.215 C 347.061 247.862,346.488 249.154,345.862 251.086 M142.800 248.809 C 142.030 249.207,139.879 250.030,138.020 250.639 C 136.161 251.248,134.827 251.809,135.055 251.885 C 135.283 251.961,137.074 251.458,139.035 250.767 C 142.769 249.452,145.825 248.017,144.800 248.061 C 144.470 248.075,143.570 248.412,142.800 248.809 M216.657 250.457 C 216.263 251.566,216.026 252.559,216.130 252.663 C 216.234 252.767,216.625 251.929,217.000 250.800 C 217.888 248.127,217.590 247.830,216.657 250.457 M131.800 252.423 C 131.140 252.611,129.880 252.949,129.000 253.175 L 127.400 253.586 129.200 253.406 C 131.169 253.209,135.092 252.078,133.800 252.080 C 133.360 252.081,132.460 252.235,131.800 252.423 M214.819 255.288 C 210.809 264.807,203.217 273.075,193.988 277.974 C 191.904 279.080,190.409 279.988,190.664 279.992 C 192.827 280.028,201.297 274.234,205.538 269.817 C 209.964 265.206,216.826 254.293,215.889 253.356 C 215.790 253.257,215.309 254.126,214.819 255.288 M123.949 254.275 C 123.460 254.876,123.488 254.914,124.200 254.625 C 124.640 254.447,125.540 254.162,126.200 253.991 L 127.400 253.682 125.949 253.641 C 125.032 253.615,124.296 253.848,123.949 254.275 M124.000 255.514 C 124.000 257.078,127.544 263.133,130.693 266.950 C 136.394 273.859,150.191 282.546,155.198 282.380 C 155.529 282.369,154.099 281.743,152.021 280.988 C 140.203 276.698,130.902 268.813,125.904 258.849 C 124.857 256.761,124.000 255.260,124.000 255.514 M159.200 258.000 C 159.530 258.213,160.070 258.388,160.400 258.388 C 160.933 258.388,160.933 258.345,160.400 258.000 C 160.070 257.787,159.530 257.612,159.200 257.612 C 158.667 257.612,158.667 257.655,159.200 258.000 M161.800 258.800 C 162.240 258.989,163.230 259.135,164.000 259.125 L 165.400 259.105 164.200 258.800 C 162.403 258.343,160.736 258.343,161.800 258.800 M171.400 258.800 L 170.200 259.105 171.600 259.125 C 172.370 259.135,173.360 258.989,173.800 258.800 C 174.864 258.343,173.197 258.343,171.400 258.800 M282.400 258.800 C 282.950 258.976,283.940 259.120,284.600 259.120 C 285.767 259.120,285.772 259.111,284.800 258.800 C 284.250 258.624,283.260 258.480,282.600 258.480 C 281.433 258.480,281.428 258.489,282.400 258.800 M166.900 259.487 C 167.505 259.578,168.495 259.578,169.100 259.487 C 169.705 259.395,169.210 259.320,168.000 259.320 C 166.790 259.320,166.295 259.395,166.900 259.487 M289.300 259.716 C 291.521 259.958,294.079 259.957,296.300 259.713 C 299.612 259.351,299.423 259.330,292.800 259.333 C 286.179 259.336,285.989 259.356,289.300 259.716 M260.800 277.737 C 260.800 277.999,266.446 280.087,266.637 279.896 C 266.743 279.790,265.553 279.230,263.992 278.652 C 261.106 277.582,260.800 277.494,260.800 277.737 M267.800 280.375 C 269.542 281.074,271.495 281.598,272.228 281.564 C 272.653 281.543,271.920 281.186,270.600 280.769 C 268.217 280.016,266.198 279.732,267.800 280.375 M314.000 280.400 C 313.467 280.745,313.467 280.788,314.000 280.788 C 314.330 280.788,314.870 280.613,315.200 280.400 C 315.733 280.055,315.733 280.012,315.200 280.012 C 314.870 280.012,314.330 280.187,314.000 280.400 M186.400 281.200 C 185.867 281.545,185.867 281.588,186.400 281.588 C 186.730 281.588,187.270 281.413,187.600 281.200 C 188.133 280.855,188.133 280.812,187.600 280.812 C 187.270 280.812,186.730 280.987,186.400 281.200 M311.400 281.200 L 310.600 281.544 311.400 281.566 C 311.840 281.578,312.470 281.413,312.800 281.200 C 313.595 280.686,312.596 280.686,311.400 281.200 M183.400 282.000 C 182.667 282.315,182.684 282.346,183.600 282.366 C 184.150 282.378,184.870 282.213,185.200 282.000 C 185.987 281.491,184.584 281.491,183.400 282.000 M273.800 282.000 C 274.240 282.189,275.050 282.338,275.600 282.332 L 276.600 282.320 275.600 282.000 C 275.050 281.824,274.240 281.674,273.800 281.668 L 273.000 281.656 273.800 282.000 M308.000 282.000 L 307.000 282.320 308.000 282.332 C 308.550 282.338,309.360 282.189,309.800 282.000 L 310.600 281.656 309.800 281.668 C 309.360 281.674,308.550 281.824,308.000 282.000 M156.600 282.800 C 157.040 282.989,157.850 283.144,158.400 283.144 C 159.312 283.144,159.329 283.113,158.600 282.800 C 158.160 282.611,157.350 282.456,156.800 282.456 C 155.888 282.456,155.871 282.487,156.600 282.800 M179.400 282.800 L 178.200 283.105 179.600 283.125 C 180.370 283.135,181.360 282.989,181.800 282.800 C 182.864 282.343,181.197 282.343,179.400 282.800 M277.400 282.800 C 277.840 282.989,279.010 283.136,280.000 283.126 L 281.800 283.108 280.200 282.777 C 277.951 282.312,276.295 282.325,277.400 282.800 M303.200 282.800 L 301.800 283.095 303.400 283.107 C 304.280 283.115,305.450 282.976,306.000 282.800 C 307.369 282.362,305.283 282.362,303.200 282.800 M160.628 283.653 C 162.220 283.996,174.163 284.007,176.400 283.667 C 177.390 283.517,173.983 283.395,168.828 283.397 C 163.674 283.399,159.984 283.514,160.628 283.653 M283.600 283.670 C 285.969 284.026,298.166 284.031,300.159 283.677 C 301.016 283.525,297.236 283.400,291.759 283.400 C 286.282 283.400,282.610 283.522,283.600 283.670 " stroke="none" fill="#286951" fill-rule="evenodd"></path><path id="path4" d="M159.000 136.000 C 160.306 137.320,161.465 138.400,161.575 138.400 C 161.685 138.400,160.706 137.320,159.400 136.000 C 158.094 134.680,156.935 133.600,156.825 133.600 C 156.715 133.600,157.694 134.680,159.000 136.000 M144.493 180.000 C 144.493 180.770,144.575 181.085,144.676 180.700 C 144.776 180.315,144.776 179.685,144.676 179.300 C 144.575 178.915,144.493 179.230,144.493 180.000 M166.707 218.290 C 167.426 218.379,168.506 218.377,169.107 218.286 C 169.708 218.195,169.120 218.122,167.800 218.124 C 166.480 218.126,165.988 218.201,166.707 218.290 M79.500 241.100 C 86.155 241.161,97.045 241.161,103.700 241.100 C 110.355 241.038,104.910 240.988,91.600 240.988 C 78.290 240.988,72.845 241.038,79.500 241.100 M167.300 249.876 C 167.685 249.976,168.315 249.976,168.700 249.876 C 169.085 249.775,168.770 249.693,168.000 249.693 C 167.230 249.693,166.915 249.775,167.300 249.876 " stroke="none" fill="#84848c" fill-rule="evenodd"></path><path id="path5" d="M66.995 180.400 C 66.995 213.510,67.042 227.055,67.100 210.500 C 67.158 193.945,67.158 166.855,67.100 150.300 C 67.042 133.745,66.995 147.290,66.995 180.400 M96.267 146.267 C 95.896 146.637,95.929 214.709,96.300 214.938 C 96.465 215.040,96.553 199.664,96.496 180.769 L 96.391 146.414 105.896 146.300 L 115.400 146.185 105.967 146.092 C 100.778 146.042,96.413 146.120,96.267 146.267 M144.093 177.200 C 144.093 177.970,144.175 178.285,144.276 177.900 C 144.376 177.515,144.376 176.885,144.276 176.500 C 144.175 176.115,144.093 176.430,144.093 177.200 M144.093 182.800 C 144.093 183.570,144.175 183.885,144.276 183.500 C 144.376 183.115,144.376 182.485,144.276 182.100 C 144.175 181.715,144.093 182.030,144.093 182.800 M114.305 215.083 C 114.802 215.179,115.522 215.175,115.905 215.075 C 116.287 214.975,115.880 214.896,115.000 214.901 C 114.120 214.905,113.807 214.987,114.305 215.083 M142.493 233.600 C 142.493 234.370,142.575 234.685,142.676 234.300 C 142.776 233.915,142.776 233.285,142.676 232.900 C 142.575 232.515,142.493 232.830,142.493 233.600 M151.693 234.000 C 151.693 234.770,151.775 235.085,151.876 234.700 C 151.976 234.315,151.976 233.685,151.876 233.300 C 151.775 232.915,151.693 233.230,151.693 234.000 M116.505 241.087 C 117.114 241.179,118.014 241.177,118.505 241.082 C 118.997 240.987,118.500 240.911,117.400 240.914 C 116.300 240.917,115.897 240.995,116.505 241.087 M155.200 244.125 C 155.200 244.194,155.785 244.779,156.500 245.425 L 157.800 246.600 156.625 245.300 C 155.530 244.088,155.200 243.816,155.200 244.125 " stroke="none" fill="#66666e" fill-rule="evenodd"></path><path id="path6" d="M119.511 119.893 C 120.451 119.978,121.891 119.977,122.711 119.891 C 123.530 119.805,122.760 119.736,121.000 119.737 C 119.240 119.739,118.570 119.809,119.511 119.893 M206.600 119.992 L 220.200 120.200 220.200 179.600 C 220.200 212.270,220.314 237.830,220.453 236.400 C 221.093 229.835,220.823 120.095,220.167 119.843 C 219.819 119.709,213.564 119.641,206.267 119.692 L 193.000 119.784 206.600 119.992 M292.100 119.897 C 293.585 119.974,296.015 119.974,297.500 119.897 C 298.985 119.820,297.770 119.757,294.800 119.757 C 291.830 119.757,290.615 119.820,292.100 119.897 M284.800 120.400 C 283.151 120.656,283.117 120.683,284.400 120.717 C 285.170 120.737,286.520 120.605,287.400 120.423 C 289.466 119.996,287.512 119.978,284.800 120.400 M303.800 120.574 C 310.103 121.596,310.894 121.675,308.400 121.032 C 307.190 120.720,304.940 120.373,303.400 120.260 L 300.600 120.055 303.800 120.574 M66.497 180.424 C 66.420 228.096,66.504 240.789,66.900 241.328 C 67.363 241.958,69.190 242.001,91.400 241.901 L 115.400 241.794 91.300 241.697 C 78.045 241.644,67.156 241.555,67.103 241.500 C 67.050 241.445,66.914 214.130,66.801 180.800 L 66.595 120.200 66.497 180.424 M128.100 120.676 C 128.485 120.776,129.115 120.776,129.500 120.676 C 129.885 120.575,129.570 120.493,128.800 120.493 C 128.030 120.493,127.715 120.575,128.100 120.676 M192.499 178.250 C 192.444 210.178,192.311 236.908,192.201 237.650 L 192.003 239.000 192.403 237.739 C 192.664 236.916,192.767 216.279,192.700 178.339 L 192.597 120.200 192.499 178.250 M280.200 121.228 C 279.320 121.416,278.060 121.755,277.400 121.983 L 276.200 122.397 277.400 122.202 C 279.766 121.818,282.543 121.191,282.736 120.997 C 282.998 120.736,282.152 120.813,280.200 121.228 M132.433 121.344 C 132.525 121.423,133.140 121.608,133.800 121.756 C 134.676 121.952,134.838 121.915,134.400 121.618 C 133.860 121.253,132.032 120.998,132.433 121.344 M311.200 121.982 C 311.530 122.205,312.085 122.391,312.434 122.394 C 312.783 122.397,314.197 122.771,315.577 123.224 C 316.957 123.677,318.160 123.973,318.251 123.882 C 318.425 123.708,313.853 122.250,311.800 121.824 C 310.917 121.641,310.758 121.683,311.200 121.982 M274.800 122.663 C 268.973 124.608,258.800 129.928,258.800 131.030 C 258.800 131.140,259.835 130.532,261.100 129.680 C 264.410 127.449,267.324 125.939,271.200 124.442 C 275.653 122.723,276.279 122.453,275.800 122.459 C 275.580 122.461,275.130 122.553,274.800 122.663 M320.358 124.837 C 321.325 125.266,322.188 125.545,322.275 125.458 C 322.448 125.286,319.365 123.982,318.892 124.028 C 318.731 124.044,319.391 124.408,320.358 124.837 M322.800 125.772 C 322.800 125.856,323.989 126.481,325.443 127.161 C 329.434 129.029,334.378 132.125,338.080 135.075 C 339.906 136.530,341.040 137.311,340.600 136.812 C 337.935 133.786,322.800 124.399,322.800 125.772 M255.304 133.842 C 249.943 138.687,241.890 151.623,243.336 153.069 C 243.425 153.158,243.807 152.279,244.185 151.116 C 246.316 144.561,251.796 136.815,257.361 132.491 C 258.000 131.995,258.445 131.511,258.350 131.417 C 258.255 131.322,256.885 132.413,255.304 133.842 M159.400 135.600 C 160.706 136.920,161.865 138.000,161.975 138.000 C 162.085 138.000,161.106 136.920,159.800 135.600 C 158.494 134.280,157.335 133.200,157.225 133.200 C 157.115 133.200,158.094 134.280,159.400 135.600 M341.600 137.938 C 341.600 138.192,341.776 138.400,341.991 138.400 C 343.907 138.400,343.670 140.425,341.428 143.199 C 340.184 144.740,339.256 146.000,339.366 146.000 C 340.159 146.000,344.012 140.369,343.663 139.719 C 343.113 138.689,341.600 137.384,341.600 137.938 M288.061 145.144 C 287.544 145.289,289.866 145.340,293.221 145.259 C 306.306 144.939,316.105 148.225,326.445 156.397 C 329.310 158.663,329.274 158.682,334.584 152.100 C 337.202 148.855,338.977 146.520,338.528 146.911 C 338.079 147.302,335.932 149.867,333.756 152.610 C 329.101 158.477,329.759 158.314,324.882 154.815 C 317.520 149.533,311.504 146.908,302.880 145.216 C 300.588 144.766,289.596 144.712,288.061 145.144 M282.800 146.539 C 276.322 149.074,271.878 153.565,271.062 158.400 C 270.837 159.739,270.850 159.730,271.365 158.178 C 273.465 151.857,278.567 147.626,286.200 145.876 C 286.826 145.733,286.783 145.691,286.000 145.685 C 285.450 145.681,284.010 146.065,282.800 146.539 M96.584 146.900 C 96.479 147.175,96.441 162.610,96.499 181.200 L 96.605 215.000 96.702 180.907 L 96.800 146.813 107.500 146.700 L 118.200 146.586 107.487 146.493 C 99.216 146.421,96.731 146.514,96.584 146.900 M242.854 154.267 C 242.825 154.744,242.696 155.464,242.570 155.867 C 242.352 156.561,242.364 156.562,242.796 155.888 C 243.047 155.497,243.175 154.777,243.081 154.288 C 242.909 153.401,242.909 153.401,242.854 154.267 M241.857 159.259 C 241.540 162.292,241.580 168.320,241.935 171.000 C 242.081 172.100,242.200 169.355,242.200 164.900 C 242.200 155.782,242.207 155.905,241.857 159.259 M270.465 162.840 C 270.327 169.321,274.191 175.182,280.883 178.643 C 282.765 179.616,282.127 178.992,279.700 177.486 C 275.678 174.991,272.841 171.690,271.372 167.800 C 271.206 167.360,270.948 165.380,270.800 163.400 L 270.529 159.800 270.465 162.840 M173.458 161.600 C 173.775 163.325,174.002 163.651,173.994 162.367 C 173.991 161.835,173.811 161.130,173.594 160.800 C 173.318 160.378,173.277 160.615,173.458 161.600 M174.493 166.400 C 174.493 167.170,174.575 167.485,174.676 167.100 C 174.776 166.715,174.776 166.085,174.676 165.700 C 174.575 165.315,174.493 165.630,174.493 166.400 M142.806 170.033 C 142.809 170.565,142.989 171.270,143.206 171.600 C 143.482 172.022,143.523 171.785,143.342 170.800 C 143.025 169.075,142.798 168.749,142.806 170.033 M175.346 174.600 C 175.347 176.800,175.414 177.649,175.495 176.487 C 175.576 175.324,175.576 173.524,175.493 172.487 C 175.411 171.449,175.345 172.400,175.346 174.600 M242.651 174.400 C 242.925 176.126,244.487 180.847,244.710 180.623 C 244.800 180.533,244.519 179.411,244.085 178.130 C 243.652 176.848,243.102 175.170,242.863 174.400 L 242.429 173.000 242.651 174.400 M143.761 180.400 C 143.761 183.810,143.822 185.205,143.897 183.500 C 143.972 181.795,143.972 179.005,143.897 177.300 C 143.822 175.595,143.761 176.990,143.761 180.400 M282.400 179.396 C 282.400 179.670,284.849 180.884,285.032 180.701 C 285.119 180.614,284.562 180.244,283.795 179.878 C 283.028 179.512,282.400 179.295,282.400 179.396 M175.348 184.800 C 175.348 187.110,175.414 188.055,175.495 186.900 C 175.576 185.745,175.576 183.855,175.495 182.700 C 175.414 181.545,175.348 182.490,175.348 184.800 M285.600 180.989 C 285.600 181.221,286.808 181.758,293.368 184.444 C 295.991 185.518,298.203 186.331,298.283 186.250 C 298.364 186.170,296.218 185.201,293.515 184.099 C 290.812 182.996,287.925 181.800,287.100 181.442 C 286.275 181.083,285.600 180.879,285.600 180.989 M245.086 181.900 C 245.475 182.946,247.243 186.142,247.685 186.600 C 247.898 186.820,247.404 185.695,246.586 184.100 C 245.171 181.337,244.523 180.387,245.086 181.900 M300.600 187.355 C 301.700 187.887,304.850 189.259,307.600 190.405 C 310.350 191.550,314.019 193.104,315.752 193.858 C 317.486 194.612,318.975 195.158,319.062 195.072 C 319.217 194.916,318.374 194.533,311.400 191.597 C 299.210 186.464,296.796 185.517,300.600 187.355 M248.263 187.657 C 250.806 192.617,260.265 200.533,268.691 204.752 C 273.646 207.233,273.227 206.718,268.077 203.997 C 262.891 201.256,260.962 199.997,256.879 196.684 C 254.261 194.560,252.971 193.192,249.063 188.395 C 248.438 187.628,248.078 187.295,248.263 187.657 M319.608 195.333 C 319.714 195.434,321.371 196.336,323.290 197.337 C 328.649 200.132,334.642 204.415,337.303 207.353 C 337.689 207.779,338.101 208.032,338.219 207.914 C 338.830 207.303,329.755 200.459,324.400 197.491 C 322.053 196.190,319.126 194.872,319.608 195.333 M272.800 206.498 C 273.125 206.864,284.911 212.022,285.067 211.867 C 285.145 211.788,282.728 210.626,279.695 209.284 C 273.779 206.667,272.486 206.144,272.800 206.498 M339.768 210.100 C 340.609 211.145,341.377 212.000,341.475 212.000 C 341.792 212.000,340.117 209.826,339.163 209.000 C 338.655 208.560,338.928 209.055,339.768 210.100 M163.000 209.600 C 161.911 209.877,161.893 209.907,162.800 209.925 C 163.350 209.935,164.160 209.789,164.600 209.600 C 165.586 209.176,164.666 209.176,163.000 209.600 M155.400 212.400 C 154.740 212.837,154.380 213.192,154.600 213.188 C 155.001 213.182,157.176 211.623,156.800 211.612 C 156.690 211.608,156.060 211.963,155.400 212.400 M285.633 212.163 C 285.872 212.397,295.385 216.578,298.000 217.599 C 299.210 218.071,300.020 218.293,299.800 218.093 C 299.580 217.892,298.770 217.488,298.000 217.194 C 297.230 216.900,294.209 215.611,291.288 214.330 C 286.414 212.192,285.180 211.720,285.633 212.163 M121.600 213.618 C 121.162 213.915,121.324 213.952,122.200 213.756 C 123.671 213.427,123.990 213.198,122.967 213.206 C 122.545 213.209,121.930 213.395,121.600 213.618 M152.200 214.635 L 151.000 215.666 152.300 214.806 C 153.015 214.333,153.600 213.868,153.600 213.773 C 153.600 213.473,153.431 213.578,152.200 214.635 M117.500 214.282 C 117.995 214.378,118.805 214.378,119.300 214.282 C 119.795 214.187,119.390 214.109,118.400 214.109 C 117.410 214.109,117.005 214.187,117.500 214.282 M114.305 214.683 C 114.802 214.779,115.522 214.775,115.905 214.675 C 116.287 214.575,115.880 214.496,115.000 214.501 C 114.120 214.505,113.807 214.587,114.305 214.683 M343.200 214.822 C 343.200 214.932,343.740 216.063,344.400 217.335 C 345.060 218.607,345.600 219.896,345.600 220.200 C 345.600 220.504,345.778 220.863,345.995 220.997 C 346.461 221.285,346.234 220.516,345.108 218.000 C 344.347 216.298,343.200 214.388,343.200 214.822 M166.905 217.487 C 167.514 217.579,168.414 217.577,168.905 217.482 C 169.397 217.387,168.900 217.311,167.800 217.314 C 166.700 217.317,166.297 217.395,166.905 217.487 M305.445 221.013 C 311.581 224.078,315.453 227.075,317.190 230.104 C 317.852 231.257,318.394 232.010,318.396 231.778 C 318.422 228.830,304.588 218.400,300.652 218.400 C 300.412 218.400,302.569 219.576,305.445 221.013 M176.411 220.259 C 176.955 220.621,178.286 221.746,179.369 222.759 C 180.689 223.994,181.019 224.193,180.369 223.365 C 179.330 222.042,176.349 219.600,175.772 219.600 C 175.579 219.600,175.867 219.896,176.411 220.259 M347.067 224.400 C 347.448 226.501,348.036 227.722,347.742 225.800 C 347.608 224.920,347.344 223.930,347.156 223.600 C 346.948 223.235,346.913 223.549,347.067 224.400 M348.083 228.800 C 348.070 229.570,348.203 231.010,348.380 232.000 C 348.812 234.431,348.846 232.147,348.418 229.400 C 348.164 227.765,348.103 227.655,348.083 228.800 M143.301 230.600 C 143.305 231.480,143.387 231.793,143.483 231.295 C 143.579 230.798,143.575 230.078,143.475 229.695 C 143.375 229.313,143.296 229.720,143.301 230.600 M183.897 232.896 C 184.113 236.525,184.301 236.986,184.347 234.000 C 184.370 232.570,184.244 231.173,184.068 230.896 C 183.892 230.620,183.815 231.520,183.897 232.896 M142.780 233.890 C 142.671 234.819,142.733 235.427,142.920 235.240 C 143.106 235.054,143.196 234.294,143.119 233.551 C 142.983 232.233,142.975 232.242,142.780 233.890 M348.934 236.800 C 348.934 238.450,349.005 239.125,349.091 238.300 C 349.178 237.475,349.178 236.125,349.091 235.300 C 349.005 234.475,348.934 235.150,348.934 236.800 M319.400 239.200 C 319.400 241.646,319.517 243.232,319.660 242.724 C 319.803 242.216,319.920 240.630,319.920 239.200 C 319.920 237.770,319.803 236.184,319.660 235.676 C 319.517 235.168,319.400 236.754,319.400 239.200 M151.600 237.776 C 151.600 238.313,151.747 238.844,151.928 238.955 C 152.108 239.067,152.177 238.627,152.082 237.979 C 151.872 236.549,151.600 236.435,151.600 237.776 M191.537 240.200 C 191.418 240.860,190.921 242.390,190.432 243.600 C 189.943 244.810,189.708 245.620,189.909 245.400 C 190.590 244.657,192.071 240.463,191.912 239.729 C 191.804 239.230,191.686 239.380,191.537 240.200 M219.400 241.200 C 219.245 242.328,219.202 243.336,219.306 243.439 C 219.409 243.542,219.616 242.700,219.767 241.567 C 219.917 240.434,219.959 239.426,219.861 239.328 C 219.763 239.229,219.555 240.072,219.400 241.200 M128.800 240.000 C 127.976 240.264,127.941 240.326,128.600 240.354 C 129.040 240.373,129.670 240.213,130.000 240.000 C 130.701 239.547,130.214 239.547,128.800 240.000 M348.501 241.400 C 348.505 242.280,348.587 242.593,348.683 242.095 C 348.779 241.598,348.775 240.878,348.675 240.495 C 348.575 240.113,348.496 240.520,348.501 241.400 M123.105 241.083 C 123.602 241.179,124.322 241.175,124.705 241.075 C 125.087 240.975,124.680 240.896,123.800 240.901 C 122.920 240.905,122.607 240.987,123.105 241.083 M116.505 241.487 C 117.114 241.579,118.014 241.577,118.505 241.482 C 118.997 241.387,118.500 241.311,117.400 241.314 C 116.300 241.317,115.897 241.395,116.505 241.487 M242.800 250.847 C 233.717 261.591,234.359 260.502,236.055 262.276 C 239.732 266.120,252.800 275.441,252.800 274.218 C 252.800 274.110,252.215 273.722,251.500 273.357 C 246.064 270.580,234.825 261.660,235.256 260.464 C 235.335 260.245,238.190 256.778,241.600 252.761 C 245.010 248.744,248.430 244.691,249.200 243.754 C 251.015 241.546,251.085 241.556,254.714 244.526 C 256.411 245.915,258.430 247.455,259.200 247.948 L 260.600 248.844 259.436 247.922 C 258.795 247.415,256.771 245.785,254.937 244.300 C 253.103 242.815,251.377 241.605,251.101 241.611 C 250.826 241.617,247.090 245.773,242.800 250.847 M347.895 244.800 C 347.234 248.919,347.221 249.296,347.813 247.201 C 348.155 245.992,348.378 244.552,348.309 244.001 C 348.221 243.296,348.099 243.531,347.895 244.800 M179.775 244.852 C 179.129 245.540,177.898 246.620,177.040 247.252 C 176.182 247.883,175.624 248.400,175.801 248.400 C 176.315 248.400,179.315 245.972,180.330 244.735 C 181.572 243.220,181.240 243.290,179.775 244.852 M218.599 245.300 C 218.109 247.709,215.947 253.776,214.394 257.100 C 213.546 258.915,212.942 260.400,213.052 260.400 C 213.162 260.400,213.946 258.915,214.794 257.100 C 216.973 252.436,219.723 244.000,219.064 244.000 C 218.954 244.000,218.745 244.585,218.599 245.300 M318.491 245.595 C 318.211 246.502,317.507 247.999,316.925 248.922 C 316.344 249.845,316.137 250.379,316.465 250.108 C 317.294 249.425,319.276 245.281,319.125 244.549 C 319.056 244.218,318.771 244.689,318.491 245.595 M188.054 247.977 C 183.594 254.859,174.345 259.325,165.857 258.695 C 164.155 258.569,163.485 258.609,164.200 258.794 C 172.005 260.819,185.183 254.701,188.958 247.300 C 189.922 245.410,189.525 245.707,188.054 247.977 M145.200 247.461 C 144.870 247.570,144.240 247.825,143.800 248.029 C 143.360 248.233,141.920 248.842,140.600 249.383 C 139.280 249.924,138.410 250.374,138.667 250.383 C 139.139 250.400,142.486 249.093,143.613 248.451 C 145.640 247.296,146.582 247.507,148.016 249.437 C 151.114 253.608,158.957 258.540,162.194 258.354 C 162.995 258.307,162.995 258.306,162.200 258.120 C 156.934 256.885,151.553 253.487,148.405 249.406 C 146.740 247.248,146.425 247.057,145.200 247.461 M261.600 249.540 C 263.917 251.454,275.126 256.825,276.713 256.781 C 277.091 256.770,276.590 256.488,275.600 256.153 C 273.547 255.458,264.105 250.899,262.000 249.586 C 260.721 248.789,260.687 248.785,261.600 249.540 M346.258 251.304 C 345.328 253.740,345.480 254.204,346.436 251.847 C 346.872 250.773,347.158 249.824,347.072 249.738 C 346.986 249.652,346.620 250.357,346.258 251.304 M314.378 252.300 L 313.000 253.800 314.500 252.422 C 315.896 251.138,316.184 250.800,315.878 250.800 C 315.812 250.800,315.137 251.475,314.378 252.300 M133.800 251.592 C 131.219 252.260,126.550 253.202,125.600 253.246 C 124.821 253.282,124.768 253.336,125.363 253.488 C 126.364 253.744,134.947 251.986,135.527 251.406 C 135.786 251.148,135.329 251.197,133.800 251.592 M123.418 253.970 C 123.128 254.441,124.203 257.635,125.295 259.541 C 125.755 260.343,126.383 261.491,126.691 262.092 C 126.999 262.693,127.424 263.291,127.635 263.422 C 127.847 263.552,127.655 263.016,127.210 262.230 C 126.764 261.443,126.052 260.186,125.627 259.437 C 124.345 257.174,123.621 254.666,124.087 254.100 C 124.370 253.756,124.365 253.600,124.073 253.600 C 123.839 253.600,123.544 253.767,123.418 253.970 M312.244 253.929 C 311.961 254.386,306.212 257.199,305.544 257.206 C 305.245 257.209,304.730 257.395,304.400 257.618 C 303.101 258.497,306.273 257.465,309.103 256.088 C 311.590 254.878,313.423 253.600,312.673 253.600 C 312.549 253.600,312.356 253.748,312.244 253.929 M344.368 256.082 C 343.836 257.225,342.456 259.575,341.302 261.303 C 340.149 263.031,339.401 264.323,339.641 264.175 C 340.648 263.552,345.900 254.567,345.495 254.161 C 345.407 254.074,344.900 254.938,344.368 256.082 M277.600 256.964 C 277.600 257.330,282.110 258.439,282.939 258.277 C 283.647 258.139,283.609 258.099,282.726 258.054 C 282.135 258.025,281.235 257.846,280.726 257.659 C 279.339 257.147,277.600 256.761,277.600 256.964 M301.462 258.271 C 301.313 258.421,299.438 258.663,297.295 258.810 L 293.400 259.077 296.400 259.122 C 299.128 259.162,305.253 258.116,302.767 258.034 C 302.198 258.015,301.611 258.122,301.462 258.271 M284.800 258.820 C 285.803 259.121,291.480 259.329,291.167 259.053 C 291.075 258.972,289.380 258.819,287.400 258.712 C 285.420 258.606,284.250 258.654,284.800 258.820 M210.763 263.500 C 209.810 264.985,206.971 268.262,204.454 270.783 C 201.936 273.303,200.579 274.806,201.438 274.122 C 205.314 271.037,213.945 260.800,212.671 260.800 C 212.573 260.800,211.715 262.015,210.763 263.500 M129.870 266.355 C 131.838 268.960,136.038 273.052,138.200 274.471 C 138.860 274.904,138.590 274.575,137.600 273.741 C 135.295 271.798,131.406 267.909,129.458 265.600 C 128.602 264.585,128.781 264.914,129.870 266.355 M336.189 267.628 C 333.748 270.103,332.173 271.428,327.986 274.530 C 327.010 275.254,327.012 275.254,328.200 274.578 C 330.872 273.056,340.142 264.800,339.179 264.800 C 339.069 264.800,337.723 266.073,336.189 267.628 M253.200 274.604 C 253.200 275.103,264.664 279.991,267.200 280.574 C 268.559 280.887,267.603 280.455,263.200 278.767 C 259.993 277.537,255.451 275.574,253.900 274.746 C 253.515 274.540,253.200 274.477,253.200 274.604 M322.922 277.161 C 319.386 278.985,314.829 280.697,310.600 281.789 C 308.758 282.264,307.297 282.543,301.200 283.581 L 299.000 283.955 301.600 283.760 C 307.958 283.280,316.240 280.905,322.718 277.703 C 324.763 276.692,326.529 275.715,326.642 275.532 C 326.917 275.087,327.084 275.014,322.922 277.161 M142.600 277.433 C 145.618 279.785,154.922 283.205,159.800 283.754 C 162.002 284.002,162.155 284.049,156.600 282.777 C 153.035 281.960,149.480 280.644,145.600 278.707 C 143.510 277.663,142.160 277.090,142.600 277.433 M194.453 278.204 C 191.776 279.630,190.887 280.243,192.212 279.748 C 193.859 279.133,197.951 276.724,197.180 276.823 C 197.081 276.836,195.854 277.457,194.453 278.204 M189.780 280.337 C 189.571 280.523,188.355 280.993,187.078 281.382 C 185.800 281.770,184.831 282.165,184.924 282.258 C 185.124 282.458,188.489 281.390,190.200 280.584 C 190.860 280.273,191.121 280.014,190.780 280.009 C 190.439 280.004,189.989 280.152,189.780 280.337 M268.433 280.944 C 268.525 281.023,269.140 281.208,269.800 281.356 C 270.676 281.552,270.838 281.515,270.400 281.218 C 269.860 280.853,268.032 280.598,268.433 280.944 M273.000 282.178 C 275.457 282.822,278.681 283.333,277.200 282.843 C 275.491 282.277,272.422 281.599,271.694 281.626 C 271.312 281.641,271.900 281.889,273.000 282.178 M181.800 282.819 C 181.242 283.071,181.485 283.107,182.600 282.938 C 183.480 282.804,184.275 282.628,184.367 282.547 C 184.710 282.244,182.568 282.471,181.800 282.819 M176.600 283.600 C 175.253 283.841,175.190 283.891,176.200 283.914 C 176.860 283.929,178.210 283.797,179.200 283.620 C 180.815 283.333,180.856 283.301,179.600 283.307 C 178.830 283.311,177.480 283.442,176.600 283.600 M280.200 283.618 C 283.064 284.065,285.731 284.030,283.200 283.580 C 282.210 283.403,280.680 283.270,279.800 283.283 C 278.241 283.306,278.252 283.315,280.200 283.618 M165.100 284.298 C 166.915 284.372,169.885 284.372,171.700 284.298 C 173.515 284.223,172.030 284.163,168.400 284.163 C 164.770 284.163,163.285 284.223,165.100 284.298 M288.500 284.298 C 290.425 284.371,293.575 284.371,295.500 284.298 C 297.425 284.225,295.850 284.165,292.000 284.165 C 288.150 284.165,286.575 284.225,288.500 284.298 " stroke="none" fill="#2c2c34" fill-rule="evenodd"></path><path id="path7" d="M67.467 120.267 C 67.320 120.413,67.203 120.728,67.206 120.967 C 67.210 121.226,67.339 121.200,67.528 120.903 C 67.773 120.517,73.692 120.382,94.022 120.300 L 120.200 120.194 93.967 120.097 C 79.538 120.044,67.613 120.120,67.467 120.267 M121.100 120.682 C 121.595 120.778,122.405 120.778,122.900 120.682 C 123.395 120.587,122.990 120.509,122.000 120.509 C 121.010 120.509,120.605 120.587,121.100 120.682 M126.100 121.076 C 126.485 121.176,127.115 121.176,127.500 121.076 C 127.885 120.975,127.570 120.893,126.800 120.893 C 126.030 120.893,125.715 120.975,126.100 121.076 M131.600 122.000 C 132.968 122.438,134.019 122.438,133.000 122.000 C 132.560 121.811,131.840 121.662,131.400 121.668 C 130.757 121.677,130.796 121.743,131.600 122.000 M148.800 128.420 C 150.187 129.361,150.978 129.635,150.000 128.836 C 149.450 128.386,148.820 128.017,148.600 128.015 C 148.380 128.013,148.470 128.196,148.800 128.420 M152.400 130.525 C 152.400 130.624,153.061 131.209,153.868 131.825 C 154.676 132.441,155.211 132.741,155.056 132.491 C 154.740 131.979,152.400 130.247,152.400 130.525 M158.800 136.200 C 160.660 138.070,162.272 139.600,162.382 139.600 C 162.492 139.600,161.060 138.070,159.200 136.200 C 157.340 134.330,155.728 132.800,155.618 132.800 C 155.508 132.800,156.940 134.330,158.800 136.200 M164.974 143.400 C 166.367 145.452,166.652 145.695,165.877 144.171 C 165.534 143.495,164.949 142.690,164.578 142.382 C 164.207 142.074,164.385 142.532,164.974 143.400 M96.001 145.900 C 96.002 146.065,101.447 146.200,108.101 146.200 C 114.755 146.200,119.300 146.081,118.200 145.935 C 115.404 145.565,96.000 145.534,96.001 145.900 M167.907 148.400 C 168.728 150.050,169.455 151.279,169.523 151.132 C 169.671 150.808,167.914 147.320,167.039 146.200 C 166.695 145.760,167.085 146.750,167.907 148.400 M132.600 151.263 C 133.040 151.504,134.306 152.533,135.414 153.551 C 137.204 155.194,137.175 155.144,135.154 153.100 C 133.903 151.835,132.637 150.805,132.340 150.812 C 132.035 150.819,132.149 151.015,132.600 151.263 M172.868 162.000 C 172.888 163.039,173.518 164.746,173.532 163.800 C 173.538 163.360,173.389 162.640,173.200 162.200 C 172.989 161.710,172.861 161.632,172.868 162.000 M173.872 167.400 C 173.999 168.500,174.169 169.475,174.251 169.567 C 174.532 169.882,174.320 167.399,173.980 166.400 C 173.751 165.726,173.716 166.051,173.872 167.400 M143.268 168.400 C 143.288 169.439,143.918 171.146,143.932 170.200 C 143.938 169.760,143.789 169.040,143.600 168.600 C 143.389 168.110,143.261 168.032,143.268 168.400 M174.718 177.600 C 174.824 181.010,174.976 183.875,175.055 183.967 C 175.317 184.268,175.128 175.851,174.823 173.600 C 174.654 172.358,174.609 174.100,174.718 177.600 M144.283 175.200 C 144.404 177.070,144.570 178.675,144.651 178.767 C 144.922 179.070,144.747 175.432,144.402 173.600 C 144.157 172.292,144.124 172.730,144.283 175.200 M144.520 183.200 C 144.520 184.410,144.595 184.905,144.687 184.300 C 144.778 183.695,144.778 182.705,144.687 182.100 C 144.595 181.495,144.520 181.990,144.520 183.200 M174.509 186.000 C 174.509 186.990,174.587 187.395,174.682 186.900 C 174.778 186.405,174.778 185.595,174.682 185.100 C 174.587 184.605,174.509 185.010,174.509 186.000 M144.093 186.800 C 144.093 187.570,144.175 187.885,144.276 187.500 C 144.376 187.115,144.376 186.485,144.276 186.100 C 144.175 185.715,144.093 186.030,144.093 186.800 M143.400 190.800 C 143.248 191.491,143.207 192.141,143.309 192.242 C 143.411 192.344,143.609 191.853,143.750 191.150 C 144.083 189.483,143.760 189.160,143.400 190.800 M174.054 190.800 C 174.019 191.350,173.896 192.250,173.783 192.800 L 173.577 193.800 174.007 192.815 C 174.243 192.274,174.365 191.374,174.278 190.815 L 174.120 189.800 174.054 190.800 M173.050 196.050 C 172.717 197.717,173.040 198.040,173.400 196.400 C 173.552 195.709,173.593 195.059,173.491 194.958 C 173.389 194.856,173.191 195.347,173.050 196.050 M139.978 200.298 C 139.074 202.101,139.087 202.279,140.020 200.883 C 140.504 200.159,140.817 199.483,140.715 199.382 C 140.613 199.280,140.281 199.692,139.978 200.298 M133.800 208.142 C 132.031 209.912,131.821 210.219,133.000 209.309 C 134.854 207.878,137.124 205.568,136.575 205.670 C 136.369 205.708,135.120 206.821,133.800 208.142 M169.071 207.760 C 168.926 208.138,168.144 208.409,166.921 208.505 L 165.000 208.656 166.851 208.728 C 168.556 208.794,170.126 207.993,169.506 207.373 C 169.392 207.259,169.196 207.433,169.071 207.760 M161.400 209.200 C 160.381 209.638,161.432 209.638,162.800 209.200 C 163.604 208.943,163.643 208.877,163.000 208.868 C 162.560 208.862,161.840 209.011,161.400 209.200 M129.900 211.029 C 128.405 211.840,128.496 212.178,130.000 211.400 C 130.660 211.059,131.200 210.694,131.200 210.590 C 131.200 210.332,131.157 210.347,129.900 211.029 M118.400 214.800 C 117.043 215.086,117.037 215.095,118.200 215.107 C 118.860 215.115,119.850 214.976,120.400 214.800 C 121.712 214.380,120.396 214.380,118.400 214.800 M100.478 215.498 C 102.831 215.569,106.791 215.569,109.278 215.499 C 111.765 215.429,109.840 215.371,105.000 215.370 C 100.160 215.370,98.125 215.428,100.478 215.498 M149.402 215.998 C 149.003 216.439,148.807 216.800,148.967 216.800 C 149.388 216.800,150.528 215.595,150.312 215.379 C 150.211 215.278,149.802 215.556,149.402 215.998 M163.200 218.818 C 162.762 219.115,162.924 219.152,163.800 218.956 C 165.271 218.627,165.590 218.398,164.567 218.406 C 164.145 218.409,163.530 218.595,163.200 218.818 M159.300 220.488 C 158.805 220.727,158.400 221.079,158.400 221.270 C 158.400 221.462,158.850 221.324,159.400 220.963 C 160.867 220.002,160.816 219.757,159.300 220.488 M145.400 221.600 C 145.059 222.260,144.869 222.800,144.979 222.800 C 145.089 222.800,145.459 222.260,145.800 221.600 C 146.141 220.940,146.331 220.400,146.221 220.400 C 146.111 220.400,145.741 220.940,145.400 221.600 M156.378 223.100 L 155.000 224.600 156.500 223.222 C 157.896 221.938,158.184 221.600,157.878 221.600 C 157.812 221.600,157.137 222.275,156.378 223.100 M178.833 222.974 C 179.401 223.648,180.256 224.719,180.733 225.354 C 181.210 225.989,181.600 226.338,181.600 226.130 C 181.600 225.922,180.745 224.852,179.700 223.751 C 178.655 222.649,178.265 222.300,178.833 222.974 M182.644 229.400 C 182.973 230.871,183.202 231.190,183.194 230.167 C 183.191 229.745,183.005 229.130,182.782 228.800 C 182.485 228.362,182.448 228.524,182.644 229.400 M152.256 230.484 C 152.121 230.988,152.028 231.850,152.049 232.400 C 152.072 232.989,152.231 232.671,152.436 231.625 C 152.803 229.752,152.673 228.927,152.256 230.484 M183.324 233.800 C 183.326 235.120,183.401 235.612,183.490 234.893 C 183.579 234.174,183.577 233.094,183.486 232.493 C 183.395 231.892,183.322 232.480,183.324 233.800 M141.000 235.227 C 139.655 236.089,139.839 236.238,141.381 235.536 C 141.942 235.280,142.400 234.920,142.400 234.736 C 142.400 234.318,142.443 234.303,141.000 235.227 M152.028 235.833 C 152.044 236.475,152.216 237.360,152.410 237.800 C 152.647 238.334,152.686 238.002,152.527 236.800 C 152.246 234.680,151.988 234.180,152.028 235.833 M182.629 238.229 C 182.481 238.815,182.438 239.372,182.532 239.466 C 182.627 239.560,182.824 239.158,182.971 238.571 C 183.119 237.985,183.162 237.428,183.068 237.334 C 182.973 237.240,182.776 237.642,182.629 238.229 M130.800 238.800 C 129.996 239.057,129.957 239.123,130.600 239.132 C 131.040 239.138,131.760 238.989,132.200 238.800 C 133.219 238.362,132.168 238.362,130.800 238.800 M152.832 239.120 C 152.796 239.698,153.907 242.000,154.221 242.000 C 154.331 242.000,154.171 241.505,153.865 240.900 C 153.560 240.295,153.209 239.530,153.086 239.200 C 152.936 238.797,152.853 238.771,152.832 239.120 M127.000 239.600 C 125.911 239.877,125.893 239.907,126.800 239.925 C 127.350 239.935,128.160 239.789,128.600 239.600 C 129.586 239.176,128.666 239.176,127.000 239.600 M121.000 240.400 L 119.000 240.674 120.800 240.690 C 121.790 240.698,123.140 240.568,123.800 240.400 C 125.377 239.999,123.925 239.999,121.000 240.400 M156.400 245.000 C 157.146 245.770,157.847 246.400,157.957 246.400 C 158.067 246.400,157.546 245.770,156.800 245.000 C 156.054 244.230,155.353 243.600,155.243 243.600 C 155.133 243.600,155.654 244.230,156.400 245.000 M178.000 245.668 C 176.952 246.620,176.701 246.965,177.400 246.495 C 178.504 245.751,180.338 243.977,179.962 244.017 C 179.873 244.026,178.990 244.770,178.000 245.668 M159.600 247.396 C 159.600 247.670,162.049 248.884,162.232 248.701 C 162.319 248.614,161.762 248.244,160.995 247.878 C 160.228 247.512,159.600 247.295,159.600 247.396 M163.400 249.200 C 163.840 249.389,164.560 249.538,165.000 249.532 C 165.643 249.523,165.604 249.457,164.800 249.200 C 163.432 248.762,162.381 248.762,163.400 249.200 M170.800 249.200 C 169.976 249.464,169.941 249.526,170.600 249.554 C 171.040 249.573,171.670 249.413,172.000 249.200 C 172.701 248.747,172.214 248.747,170.800 249.200 " stroke="none" fill="#94949c" fill-rule="evenodd"></path><path id="path8" d="M80.100 119.900 C 87.085 119.961,98.515 119.961,105.500 119.900 C 112.485 119.839,106.770 119.788,92.800 119.788 C 78.830 119.788,73.115 119.839,80.100 119.900 M159.400 136.000 C 160.928 137.540,162.269 138.800,162.379 138.800 C 162.489 138.800,161.328 137.540,159.800 136.000 C 158.272 134.460,156.931 133.200,156.821 133.200 C 156.711 133.200,157.872 134.460,159.400 136.000 M135.200 154.200 C 136.395 155.410,137.463 156.400,137.573 156.400 C 137.683 156.400,136.795 155.410,135.600 154.200 C 134.405 152.990,133.337 152.000,133.227 152.000 C 133.117 152.000,134.005 152.990,135.200 154.200 M144.109 180.000 C 144.109 180.990,144.187 181.395,144.282 180.900 C 144.378 180.405,144.378 179.595,144.282 179.100 C 144.187 178.605,144.109 179.010,144.109 180.000 M175.293 179.600 C 175.293 180.370,175.375 180.685,175.476 180.300 C 175.576 179.915,175.576 179.285,175.476 178.900 C 175.375 178.515,175.293 178.830,175.293 179.600 M166.300 209.082 C 166.795 209.178,167.605 209.178,168.100 209.082 C 168.595 208.987,168.190 208.909,167.200 208.909 C 166.210 208.909,165.805 208.987,166.300 209.082 M100.900 215.098 C 103.265 215.169,107.135 215.169,109.500 215.098 C 111.865 215.028,109.930 214.970,105.200 214.970 C 100.470 214.970,98.535 215.028,100.900 215.098 M149.775 216.500 L 148.600 217.800 149.900 216.625 C 151.112 215.530,151.384 215.200,151.075 215.200 C 151.006 215.200,150.421 215.785,149.775 216.500 M166.707 217.890 C 167.426 217.979,168.506 217.977,169.107 217.886 C 169.708 217.795,169.120 217.722,167.800 217.724 C 166.480 217.726,165.988 217.801,166.707 217.890 M119.900 241.082 C 120.395 241.178,121.205 241.178,121.700 241.082 C 122.195 240.987,121.790 240.909,120.800 240.909 C 119.810 240.909,119.405 240.987,119.900 241.082 M79.329 241.500 C 86.110 241.561,97.090 241.561,103.729 241.500 C 110.368 241.438,104.820 241.388,91.400 241.388 C 77.980 241.388,72.548 241.438,79.329 241.500 M167.300 250.276 C 167.685 250.376,168.315 250.376,168.700 250.276 C 169.085 250.175,168.770 250.093,168.000 250.093 C 167.230 250.093,166.915 250.175,167.300 250.276 " stroke="none" fill="#444454" fill-rule="evenodd"></path></g></svg>